<?xml version="1.0" encoding="UTF-8" standalone="no"?>
<!-- Created with Inkscape (http://www.inkscape.org/) -->

<svg
   xmlns:dc="http://purl.org/dc/elements/1.1/"
   xmlns:cc="http://creativecommons.org/ns#"
   xmlns:rdf="http://www.w3.org/1999/02/22-rdf-syntax-ns#"
   xmlns:svg="http://www.w3.org/2000/svg"
   xmlns="http://www.w3.org/2000/svg"
   xmlns:sodipodi="http://sodipodi.sourceforge.net/DTD/sodipodi-0.dtd"
   xmlns:inkscape="http://www.inkscape.org/namespaces/inkscape"
   id="svg2"
   version="1.1"
   inkscape:version="0.48.3.1 r9886"
   width="950"
   height="170"
   sodipodi:docname="180301_barlow-logo-2018.svg">
  <metadata
     id="metadata8">
    <rdf:RDF>
      <cc:Work
         rdf:about="">
        <dc:format>image/svg+xml</dc:format>
        <dc:type
           rdf:resource="http://purl.org/dc/dcmitype/StillImage" />
        <dc:title />
      </cc:Work>
    </rdf:RDF>
  </metadata>
  <defs
     id="defs6" />
  <sodipodi:namedview
     pagecolor="#ffffff"
     bordercolor="#666666"
     borderopacity="1"
     objecttolerance="10"
     gridtolerance="10"
     guidetolerance="10"
     inkscape:pageopacity="0"
     inkscape:pageshadow="2"
     inkscape:window-width="640"
     inkscape:window-height="480"
     id="namedview4"
     showgrid="false"
     inkscape:zoom="0.56462978"
     inkscape:cx="519.6462"
     inkscape:cy="127.94744"
     inkscape:current-layer="layer4" />
  <g
     inkscape:groupmode="layer"
     id="layer2"
     inkscape:label="XX_text_EDIT"
     style="display:none">
    <text
       xml:space="preserve"
       style="font-size:68px;font-style:normal;font-variant:normal;font-weight:500;font-stretch:normal;text-align:start;line-height:100%;letter-spacing:1.39999998px;word-spacing:0px;writing-mode:lr-tb;text-anchor:start;fill:#000000;fill-opacity:1;stroke:none;display:inline;enable-background:new;font-family:Ostrich Sans;-inkscape-font-specification:Ostrich Sans Medium"
       x="181.90337"
       y="82.389008"
       id="text3942-7-3-9"
       sodipodi:linespacing="100%"
       transform="scale(1.0015691,0.99843336)"><tspan
         sodipodi:role="line"
         x="181.90337"
         y="82.389008"
         id="tspan5722-9-7"
         style="font-size:68px;font-style:normal;font-variant:normal;font-weight:500;font-stretch:normal;text-align:start;line-height:100%;letter-spacing:1.39999998px;writing-mode:lr-tb;text-anchor:start;fill:#000000;font-family:Ostrich Sans;-inkscape-font-specification:Ostrich Sans Medium"><tspan
           dy="0 0"
           id="tspan5855"
           style="font-size:68px;font-style:normal;font-variant:normal;font-weight:500;font-stretch:normal;text-align:start;line-height:100%;letter-spacing:1.39999998px;writing-mode:lr-tb;text-anchor:start;fill:#000000;font-family:Ostrich Sans;-inkscape-font-specification:Ostrich Sans Medium"
           dx="0 1.8758558 -2.8137839 0 0 -6.1603765 0 0 -0.9379279 -0.9379279 -4.6896405 0 1.3430467 0 0 0 0 0 0 0 0 -6.2741666 0 0 0 0 0 0 0 -1.3430467 10.744372">ArT  MEETS  RADICAL  OPENNESS 2018</tspan></tspan></text>
    <text
       xml:space="preserve"
       style="font-size:46px;font-style:normal;font-variant:normal;font-weight:500;font-stretch:normal;text-align:start;line-height:100%;letter-spacing:0px;word-spacing:0px;writing-mode:lr-tb;text-anchor:start;fill:#000000;fill-opacity:1;stroke:none;display:inline;enable-background:new;font-family:Ostrich Sans;-inkscape-font-specification:Ostrich Sans Medium"
       x="182.95612"
       y="135.17528"
       id="text3942-7-3-9-2"
       sodipodi:linespacing="100%"
       transform="scale(1.0015691,0.99843336)"><tspan
         sodipodi:role="line"
         x="182.95612"
         y="135.17528"
         id="tspan5722-9-7-6"
         style="font-size:46px;font-style:normal;font-variant:normal;font-weight:500;font-stretch:normal;text-align:start;line-height:100%;writing-mode:lr-tb;text-anchor:start;fill:#000000;font-family:Ostrich Sans;-inkscape-font-specification:Ostrich Sans Medium"><tspan
           id="tspan5855-3"
           style="font-size:46px;font-style:normal;font-variant:normal;font-weight:500;font-stretch:normal;text-align:start;line-height:100%;writing-mode:lr-tb;text-anchor:start;fill:#000000;font-family:Ostrich Sans;-inkscape-font-specification:Ostrich Sans Medium">Festival dedicated to Art, Hacktivism &amp; Open Culture</tspan></tspan></text>
    <path
       style="fill:none;stroke:#000000;stroke-width:1.58212137px;stroke-linecap:butt;stroke-linejoin:miter;stroke-opacity:1;display:inline;enable-background:new"
       d="m 182.89991,94.43612 753.40743,0"
       id="path5902"
       inkscape:connector-curvature="0"
       sodipodi:nodetypes="cc" />
  </g>
  <g
     inkscape:groupmode="layer"
     id="layer3"
     inkscape:label="amroushi">
    <path
       id="path208-6"
       style="fill:#000000;stroke:none;display:inline;enable-background:new"
       d="m 25.002665,127.47014 -2.144258,4.38257 -4.396374,-2.13752 1.072132,-2.1913 2.198179,1.06872 1.07214,-2.19129 2.198181,1.06882 m 9.810953,-3.36764 -1.072147,2.19128 4.396372,2.13754 -2.144233,4.38268 -4.396384,-2.13762 2.144245,-4.3826 -2.198164,-1.06871 1.072097,-2.19139 2.198214,1.06882 m -23.161861,-19.39915 -1.072124,2.19129 2.198154,1.06871 -1.072099,2.19139 2.19817,1.06872 -1.072107,2.19129 2.198178,1.06882 2.14424,-4.3826 2.198195,1.06872 1.072123,-2.19129 -2.198194,-1.06872 -1.072124,2.19129 -2.198171,-1.06881 1.072132,-2.19129 -4.396373,-2.13753 m 48.360095,23.51291 -3.216385,6.57399 -4.396373,-2.13754 1.072135,-2.19139 -2.198196,-1.06872 1.072148,-2.19129 2.19817,1.06872 1.072135,-2.19128 4.396366,2.13751 m 26.378238,12.82528 -2.14424,4.38259 -2.19822,-1.06872 2.14428,-4.38268 2.19818,1.06881 m -16.45943,-5.29012 -1.07215,2.1913 2.19821,1.06882 -1.07213,2.19129 -2.19818,-1.06881 1.0721,-2.1913 -2.19818,-1.06871 1.07216,-2.19129 2.19817,1.0687 m -30.828521,-20.4141 -1.072142,2.1912 -2.198201,-1.06871 -2.144264,4.38258 -2.198189,-1.06871 -1.072103,2.19129 -4.396373,-2.13752 1.07211,-2.1913 -8.792761,-4.27516 -1.0721,2.1913 2.198179,1.06882 -1.072148,2.19128 6.594598,3.20635 -2.144261,4.38258 -6.594577,-3.20635 -3.216363,6.57399 6.594568,3.20624 -4.288511,8.76527 -2.198219,-1.06881 -1.0721,2.19139 4.396366,2.13753 2.144255,-4.38268 2.198203,1.06881 2.144248,-4.38258 -2.198219,-1.06882 2.144272,-4.38259 2.198183,1.06872 2.144257,-4.38259 2.198189,1.06882 -2.14425,4.38258 4.396378,2.13754 1.072135,-2.1913 4.396372,2.13753 1.072104,-2.1913 6.594568,3.20635 3.216379,-6.57398 -4.39636,-2.13752 1.072129,-2.1913 -2.198202,-1.06872 -1.072129,2.1913 -2.198176,-1.06881 1.072134,-2.1913 -2.198194,-1.06881 3.21636,-6.57388 -2.198145,-1.06872 m 14.261213,4.22129 -2.144238,4.3826 -2.198208,-1.06882 2.144282,-4.38258 2.198164,1.0688 m -24.287908,-22.659251 -1.072115,2.1913 2.198164,1.068801 -1.072135,2.19131 -2.198177,-1.06882 -2.144235,4.38258 -2.198203,-1.06871 1.07214,-2.19129 -2.198195,-1.06882 3.216363,-6.573871 4.396393,2.13752 m 85.729286,41.682061 -1.07215,2.19129 -2.19817,-1.06872 1.07211,-2.19139 2.19821,1.06882 m -62.621358,-27.73431 -2.144263,4.38259 -2.198164,-1.06872 2.144238,-4.38258 2.198189,1.06871 m 54.954658,26.71926 -1.07212,2.19139 -2.19821,-1.06882 1.07215,-2.19129 2.19818,1.06872 m -74.684403,-30.88678 -3.216393,6.57388 -6.594568,-3.20625 -1.072108,2.1913 6.594561,3.20623 1.072115,-2.19128 4.396372,2.13752 2.144252,-4.38258 -2.198164,-1.06872 1.072115,-2.19129 -2.198182,-1.06881 m 16.35157,-5.6127 -1.072147,2.1913 -2.198165,-1.06873 1.072116,-2.191281 2.198196,1.068711 m -0.107908,-10.902701 -1.072129,2.1913 -4.396372,-2.13753 1.072134,-2.19139 4.396367,2.13762 m 76.936521,37.406901 -1.07214,2.1913 2.1982,1.06881 -1.07213,2.19128 -4.39639,-2.13752 2.14427,-4.38258 2.19819,1.06871 m -72.701964,-51.623561 -2.144245,4.38258 2.198183,1.06881 -1.07211,2.1913 4.39636,2.13753 1.072135,-2.19129 2.198176,1.0688 -2.144232,4.38259 -2.19822,-1.06881 -2.144232,4.38268 -2.198189,-1.06881 1.072141,-2.1913 -4.396385,-2.13753 2.144251,-4.38258 -2.198183,-1.06882 1.07211,-2.19128 -2.19817,-1.06882 2.144237,-4.38258 4.396373,2.13753 m 80.260784,41.735811 -2.14424,4.38259 -2.19821,-1.06872 2.14425,-4.38258 2.1982,1.06871 m 3.21639,-6.57388 -1.07216,2.1913 -2.19815,-1.06872 1.07212,-2.1913 2.19819,1.06872 m 28.52249,8.44259 -1.07214,2.19139 2.19821,1.06871 1.07209,-2.19129 -2.19816,-1.06881 m -15.54911,-23.835511 -1.07213,2.1913 2.19816,1.06882 -3.21637,6.573871 -2.19816,-1.06871 -1.07213,2.19129 -2.19819,-1.06881 1.07211,-2.1913 -2.19816,-1.0688 -1.07213,2.19137 -2.19817,-1.0688 -1.07215,2.19128 -2.19819,-1.06871 1.07212,-2.19139 2.19822,1.06883 1.07209,-2.1913 2.19821,1.06872 2.14424,-4.382601 2.1982,1.06881 2.14426,-4.38266 2.19817,1.06879 m -25.25218,-9.56515 -2.14425,4.38259 -2.19819,-1.06872 2.14426,-4.38259 2.19818,1.06872 m 31.73887,1.86871 -1.07213,2.19129 2.1982,1.06881 -1.07214,2.1913 4.39639,2.13752 -3.2164,6.573881 6.59459,3.20635 -2.14428,4.38258 -2.19818,-1.06872 -2.14427,4.3826 2.19821,1.0688 -2.14426,4.38259 2.19819,1.06882 2.14424,-4.38269 2.19819,1.06881 3.21639,-6.57397 -2.19821,-1.06872 1.07215,-2.19129 -2.19817,-1.06881 2.14424,-4.38259 -2.1982,-1.068811 2.14426,-4.38259 -4.39637,-2.13753 1.07211,-2.19129 -6.59455,-3.20634 m -24.12612,-6.30507 -1.07211,2.1913 2.19818,1.06872 -2.14426,4.38268 4.39639,2.13753 -1.07215,2.1913 2.19821,1.0688 -1.07215,2.1913 2.19817,1.06872 -1.0721,2.191281 -4.39637,-2.137521 1.07211,-2.1913 -2.19816,-1.06871 1.07213,-2.19139 -4.39636,-2.13753 1.07209,-2.19129 -2.19817,-1.06872 1.0721,-2.19129 -2.19817,-1.06882 1.07215,-2.19129 2.19815,1.06872 1.07216,-2.19129 2.19816,1.0688 m 7.50491,-15.33914 -1.07216,2.19129 2.1982,1.06881 -1.07213,2.19129 2.1982,1.06872 2.14425,-4.38258 -4.39636,-2.13753 m -54.90074,-21.267855 -1.07213,2.19126 -2.19818,-1.068751 1.07214,-2.191382 2.19817,1.068873 M 69.97803,29.983908 68.9059,32.175233 66.70772,31.106416 67.77986,28.9151 l 2.19817,1.068808 m 25.25218,9.565148 -1.07212,2.191381 -2.19821,-1.068865 1.07214,-2.19126 2.19819,1.068744 m -2.25212,-6.520072 -1.07213,2.19126 -2.19817,-1.068809 -1.07216,2.191382 -2.19819,-1.068809 1.07214,-2.191381 2.19821,1.068808 1.0721,-2.191316 2.1982,1.068865 m -7.72063,-6.466494 -1.07211,2.191381 -2.1982,-1.068808 1.07214,-2.19126 2.19817,1.068687 m 17.5855,8.55029 -1.07212,2.19126 -2.19821,-1.068752 1.07213,-2.191317 2.1982,1.068809 m 30.77461,14.962776 -3.21639,6.573893 6.59456,3.206304 2.14426,-4.382641 -2.19818,-1.068679 1.07212,-2.191325 -4.39637,-2.137552 m -29.75642,-22.605543 -1.07212,2.191317 -2.19819,-1.068809 -1.07213,2.191317 -4.39637,-2.137487 2.14427,-4.382642 6.59454,3.206304 m 9.86488,2.083853 -1.07214,2.19126 4.39636,2.137495 -2.14423,4.382634 -2.1982,-1.068744 1.07213,-2.19126 -2.19816,-1.068809 1.0721,-2.191316 -2.19817,-1.068809 1.07212,-2.191324 2.19819,1.068873 m -2.25214,-6.520194 -1.07211,2.191317 -2.19819,-1.068744 -1.07212,2.191252 -2.19817,-1.068744 1.07213,-2.191381 -6.59458,-3.206239 -2.14424,4.382576 -6.59456,-3.206304 2.14424,-4.382641 -4.39638,-2.137504 -2.14424,4.382585 4.39638,2.13756 -1.07215,2.191317 -2.19818,-1.068809 -1.07212,2.191317 -2.19817,-1.068809 1.0721,-2.191251 -2.19818,-1.068752 -1.07213,2.191325 -4.39637,-2.137561 -1.07213,2.19126 4.39636,2.137552 -1.07211,2.191325 -10.99095,-5.343929 -2.14423,4.382641 -2.1982,-1.068744 -4.288529,8.765275 2.198219,1.068752 -1.07213,2.19126 10.99092,5.343921 -1.07212,2.19126 4.39637,2.137487 -1.07211,2.191325 2.19817,1.068808 -1.07213,2.19126 -6.59456,-3.206247 -1.07213,2.19126 -2.19815,-1.068744 1.07211,-2.191325 -4.39639,-2.137495 -2.144248,4.382576 -4.396385,-2.137552 -3.216354,6.573893 -6.594561,-3.206361 -3.216393,6.574023 4.396367,2.137496 -1.072129,2.191316 2.198208,1.068744 1.072122,-2.191252 2.19817,1.068744 2.144271,-4.382576 -2.198202,-1.068874 1.072147,-2.19126 4.396378,2.137561 -2.144282,4.382576 4.396366,2.137621 -2.144238,4.38257 -2.19817,-1.06881 -1.072149,2.19131 -2.198182,-1.06873 -3.216393,6.5739 -2.198151,-1.06872 1.072097,-2.19129 -2.198182,-1.06881 -1.072135,2.19128 -2.198164,-1.0688 -3.216386,6.57398 4.396378,2.13752 -1.072147,2.19129 2.198177,1.06881 -2.144239,4.3826 -6.594555,-3.20636 -1.072135,2.1913 2.198189,1.06881 -2.144251,4.38259 2.19817,1.06881 1.072123,-2.19138 2.198214,1.0688 -5.360642,10.956571 -4.396373,-2.13754 1.072116,-2.191381 -2.198183,-1.06872 1.072129,-2.19129 -2.198164,-1.06882 1.072103,-2.19129 2.198214,1.06882 1.072092,-2.1913 -2.198171,-1.0688 1.072154,-2.1913 -4.396391,-2.13753 -2.144272,4.38258 -2.198171,-1.0688 -1.072132,2.19129 -2.198194,-1.06872 -4.288504,8.76527 4.396382,2.137521 -2.144272,4.3826 6.594568,3.20633 1.072132,-2.19139 2.198178,1.06882 1.072129,-2.19129 2.198177,1.06881 1.07214,-2.19139 4.396354,2.13753 2.144258,-4.38259 2.198201,1.06882 1.072129,-2.1913 2.198189,1.06872 -3.216405,6.57398 2.198215,1.06871 -1.072136,2.1913 4.396373,2.13752 -1.072122,2.19139 2.198189,1.06873 -2.144264,4.38257 4.396366,2.13753 -1.072109,2.19139 2.198164,1.06872 -1.07211,2.19129 2.19819,1.06881 -1.072149,2.19129 2.198196,1.06881 -3.216373,6.57388 2.198158,1.06872 1.072141,-2.19129 2.198202,1.06882 1.072103,-2.1913 4.396366,2.13754 1.072153,-2.1913 2.1982,1.06871 -1.07213,2.19139 4.39635,2.13743 -1.07213,2.19139 2.19819,1.06872 2.14427,-4.38258 13.18911,6.41257 1.07214,-2.19128 2.1982,1.06881 -1.07214,2.19129 6.59454,3.20635 -2.14424,4.38258 2.1982,1.06871 -1.07215,2.19139 2.19819,1.06873 3.21638,-6.57389 -2.19818,-1.0688 1.07214,-2.19131 -2.19822,-1.06881 2.14425,-4.38259 4.39641,2.13754 1.07211,-2.19129 2.1982,1.06881 1.0721,-2.1913 2.1982,1.06872 1.07215,-2.1913 2.19816,1.06882 1.07213,-2.19129 4.39638,2.13753 2.14424,-4.38269 2.1982,1.06881 2.14424,-4.38258 4.39639,2.13752 1.07212,-2.19128 6.59457,3.20634 2.14423,-4.38268 -4.39636,-2.13753 1.07215,-2.1913 -2.19821,-1.0688 3.21638,-6.57389 4.39636,2.13753 -3.21636,6.57397 6.59458,3.20625 2.14423,-4.38258 2.19819,1.06881 1.07213,-2.1913 2.19819,1.06872 -1.07215,2.19129 2.19819,1.06881 1.07213,-2.19128 2.1982,1.06871 1.07214,-2.19128 -2.19822,-1.06873 2.14426,-4.38268 6.59456,3.20634 -1.07213,2.19129 -2.19817,-1.06872 -1.07215,2.1913 4.39638,2.13752 -1.07213,2.1913 6.59457,3.20634 -2.14424,4.38259 4.39637,2.13753 1.0721,-2.1913 -2.19817,-1.06881 2.14423,-4.38258 -2.19814,-1.06882 1.07209,-2.19129 -2.19817,-1.06872 1.07214,-2.19129 -4.39641,-2.13763 1.07215,-2.19129 -2.19817,-1.06872 1.07208,-2.19129 -8.79272,-4.27516 -1.07211,2.19139 -2.1982,-1.0688 -1.07212,2.19129 -2.19818,-1.06871 2.14423,-4.38269 -6.59454,-3.20624 -1.07213,2.19129 2.19815,1.06871 -1.0721,2.1913 2.19819,1.06881 -1.07211,2.19128 2.19815,1.06882 -3.21636,6.57389 -2.19818,-1.06882 1.07211,-2.19128 -4.39637,-2.13754 1.07213,-2.19129 -2.1982,-1.06871 1.07213,-2.1913 -2.19822,-1.06881 3.21644,-6.57389 -2.19819,-1.06881 1.07214,-2.19129 2.19816,1.06872 1.07212,-2.1913 2.19819,1.06882 1.07214,-2.1913 2.19819,1.06872 1.0721,-2.19129 6.59458,3.20634 -1.07212,2.19129 2.19818,1.06882 1.07211,-2.1913 -2.19817,-1.06881 1.07214,-2.19129 -4.39637,-2.13753 2.14424,-4.38268 -2.19822,-1.068721 1.07217,-2.1913 -2.1982,-1.06881 2.14425,-4.38259 -4.39637,-2.13752 -2.14425,4.38258 -2.19819,-1.06882 -1.07213,2.19139 -4.39637,-2.13761 1.07213,-2.1913 2.1982,1.06882 1.0721,-2.1913 2.19822,1.06872 2.14423,-4.38259 4.39638,2.13753 1.07213,-2.1913 -6.59459,-3.20633 -3.21637,6.57397 -2.19815,-1.06882 1.0721,-2.19128 -4.39639,-2.13753 3.21639,-6.57398 -8.79274,-4.27506 2.14428,-4.38257 -2.19821,-1.06873 1.07214,-2.19139 -4.39637,-2.13755 1.07213,-2.191263 -2.19819,-1.068744 3.21637,-6.573966 -6.59458,-3.206239 1.07215,-2.191382 -4.39637,-2.137552 -2.14425,4.382577 -2.19821,-1.068687 -1.07211,2.19126 -4.3964,-2.137496 -1.07208,2.191317 -4.39639,-2.137553 2.14424,-4.382576 2.1982,1.068679 2.14426,-4.382577 2.19819,1.068809 2.14424,-4.382641 2.19817,1.068816 3.21642,-6.573966 -2.1982,-1.068744 1.07212,-2.191316 -2.1982,-1.068752 1.07215,-2.191317 -6.59459,-3.206304"
       inkscape:connector-curvature="0" />
    <path
       style="fill:#000000;fill-rule:evenodd;stroke:#ffffff;stroke-width:1.38647842;display:inline;enable-background:new"
       d="m 69.50034,54.226094 c 15.30207,0 30.60416,0 45.90625,0 3.04155,3.526693 6.08309,7.053443 9.12462,10.580205 -5.87265,8.69253 -6.36779,19.82066 -4.17411,29.79205 2.13212,-3.48267 8.16783,-3.15771 8.52177,1.40226 0.5304,3.07416 1.20558,6.529911 3.38649,8.858991 0.68349,2.72046 -2.59601,4.25574 -3.24034,5.91862 -0.77875,10.1933 -9.43584,17.7296 -18.35905,21.48739 -7.31509,2.19596 -14.21652,6.25785 -19.12583,12.15612 -4.32019,-6.77999 -12.42871,-9.48875 -19.48295,-12.46624 -8.25475,-3.5963 -16.352226,-10.14925 -17.682292,-19.55654 -0.135609,-2.19215 -3.499963,-4.53113 -2.813209,-7.40252 1.909225,-3.37505 2.279571,-7.380431 4.03604,-10.779181 1.778531,-3.74503 6.787681,0.12484 7.742881,-0.79885 2.53504,-9.6391 1.73667,-20.06297 -2.499073,-29.11284 2.886273,-3.35988 5.772553,-6.719701 8.658803,-10.079465 z"
       id="path4660"
       inkscape:connector-curvature="0"
       sodipodi:nodetypes="cccccccccccccccc" />
    <path
       style="fill:#ffffff;fill-rule:evenodd;stroke:none;display:inline;enable-background:new"
       d="m 70.81561,57.786181 c 14.206,0 28.41205,0 42.6181,0 2.27776,2.636783 4.70272,5.274308 6.87773,7.921488 -4.69124,7.46372 -4.95385,16.76472 -4.0341,25.27564 0.62325,5.51249 2.55092,11.169141 0.7373,16.672401 -4.4863,11.87655 -18.00405,11.78434 -24.93763,18.5275 -7.10096,-6.83604 -20.81053,-9.08537 -24.84545,-16.21631 -2.15138,-3.84047 -1.81757,-8.39129 -0.73624,-12.491261 1.48242,-8.08136 2.44469,-16.46239 0.50536,-24.56003 -0.56141,-2.55194 -1.33043,-5.05783 -2.28644,-7.49016 2.01951,-2.55771 4.06944,-5.091339 6.10137,-7.639268 z"
       id="path4662"
       inkscape:connector-curvature="0"
       sodipodi:nodetypes="ccccccccccc" />
    <path
       style="font-size:medium;font-style:normal;font-variant:normal;font-weight:normal;font-stretch:normal;text-indent:0;text-align:start;text-decoration:none;line-height:normal;letter-spacing:normal;word-spacing:normal;text-transform:none;direction:ltr;block-progression:tb;writing-mode:lr-tb;text-anchor:start;baseline-shift:baseline;color:#000000;fill:#ffffff;fill-opacity:1;stroke:none;stroke-width:5;marker:none;visibility:visible;display:inline;overflow:visible;enable-background:accumulate;font-family:Sans;-inkscape-font-specification:Sans"
       d="m 88.70862,60.408489 c -0.15672,0 -0.31299,0.01005 -0.4658,0.01816 -1.2225,0.07988 -2.31961,0.427788 -3.2425,0.937844 -1.84579,1.020126 -3.01537,2.669496 -3.14202,4.161076 -0.01,0.10446 -0.007,0.20146 -0.01,0.30052 l -4.10106,2.86803 a 0.25891306,0.25810248 0 0 0 0.22833,0.45532 l 4.39338,-1.41127 c 0.34005,0.52326 0.78412,0.91693 1.21475,1.22001 0.48476,0.34114 0.93303,0.61158 1.16,0.88326 0.13697,0.16367 0.14553,0.31564 0.0822,0.52803 -0.0634,0.21248 -0.22061,0.46608 -0.41102,0.69198 -0.38078,0.452 -0.86772,0.80132 -0.86772,0.80132 a 0.25891306,0.25810248 0 0 0 -0.01,0.0181 l -0.43841,0.36417 c 0,0 -1.06541,0.95196 -2.21036,2.34917 -1.14498,1.39719 -2.38814,3.24107 -2.71273,5.08066 -0.3303,1.87108 -0.80333,4.41874 -1.03213,7.35693 a 0.25891306,0.25810248 0 0 0 -0.14613,0.0914 c 0,0 -0.8775,1.0572 -1.57101,2.51303 -0.69352,1.45581 -1.23098,3.34355 -0.48407,5.017 1.11404,2.49761 2.41423,3.60485 2.95019,3.98806 0.47953,3.012411 1.07532,6.291651 2.03683,9.141521 0.80825,2.39569 1.90109,4.44986 3.39777,5.83641 -0.21983,-0.02 -0.47134,-0.0495 -1.03214,-0.0362 -0.75941,0.0171 -1.64437,0.0982 -2.21949,0.52812 -0.51842,0.38749 -0.70477,0.79637 -0.7307,1.11992 -0.0261,0.32363 0.10956,0.56456 0.10956,0.56456 a 0.25891306,0.25810248 0 0 0 0.24661,0.11838 c 0,0 0.191,-0.0181 0.42014,-0.0276 0.22916,-0.0105 0.51345,0.01 0.60284,0.0276 0.005,6.3e-4 0.0679,0.0628 0.073,0.15473 0.003,0.0456 -0.008,0.0837 -0.018,0.1002 -0.0101,0.0171 -0.0135,0.0209 -0.0456,0.0276 -0.0407,0.01 -0.0725,0.0123 -0.13703,0.0542 -0.0322,0.0209 -0.0805,0.0561 -0.10955,0.12742 -0.0293,0.0714 -0.0188,0.17243 0.01,0.22771 0.0561,0.11039 0.1079,0.11742 0.14613,0.13655 0.0382,0.019 0.0709,0.0343 0.10956,0.0456 0.15475,0.0467 0.37446,0.0837 0.67589,0.10923 0.60288,0.0514 1.49864,0.0429 2.5118,-0.11837 1.63977,-0.26149 3.54814,-0.51051 4.15583,-0.59188 0.33196,0.10659 0.66282,0.19451 0.99561,0.28224 -0.11645,0.0457 -0.23868,0.0976 -0.35624,0.15482 -0.20801,0.10106 -0.40316,0.19556 -0.53889,0.38244 -0.0677,0.0933 -0.11749,0.24695 -0.0729,0.39149 0.0444,0.14462 0.1524,0.23313 0.27402,0.3005 0.30355,0.16823 0.34091,0.31003 0.48406,0.49168 0.0716,0.0904 0.20393,0.19754 0.36536,0.22762 0.16143,0.0305 0.32285,5.8e-4 0.53891,-0.0638 0.39337,-0.11762 0.76091,-0.21706 1.01383,-0.23676 0.12647,-0.0105 0.21861,6.3e-4 0.26489,0.0181 0.0463,0.0171 0.0488,0.0238 0.064,0.0637 0.0716,0.1909 0.11871,0.43317 0.32884,0.63738 0.21013,0.20411 0.54968,0.26776 1.02298,0.18202 0.44949,-0.0818 1.1517,-0.24664 1.78107,-0.39147 0.31469,-0.0723 0.60989,-0.14254 0.84032,-0.19118 0.23043,-0.0485 0.43561,-0.0723 0.42015,-0.0723 0.16942,0 0.27329,-0.0599 0.39273,-0.12751 0.11949,-0.0676 0.23627,-0.15396 0.3471,-0.23675 0.22169,-0.16567 0.40188,-0.32782 0.40188,-0.32782 a 0.25891306,0.25810248 0 0 0 0.0729,-0.30042 c 1.16673,-0.0171 2.00987,-0.0971 2.30171,-0.13663 0.78343,-0.10639 1.45946,-0.60664 2.03684,-1.34754 0.57737,-0.7409 1.06766,-1.7274 1.49793,-2.88632 0.86051,-2.31786 1.47117,-5.31209 1.90895,-8.27654 0.81024,-5.486701 0.9959,-10.433481 1.02298,-11.208541 0.3156,0.29717 1.5275,1.4523 3.31556,3.02297 1.00209,0.88021 2.08066,1.79372 3.05069,2.5585 0.96999,0.76489 1.82233,1.374471 2.43869,1.666321 0.59814,0.28318 1.00735,0.37854 1.34268,0.25492 0.16764,-0.0619 0.30415,-0.19563 0.37447,-0.33695 0.0704,-0.14121 0.0897,-0.2908 0.0914,-0.43696 0.005,-0.584941 -0.3014,-1.211071 -0.3014,-1.211071 a 0.25891306,0.25810248 0 0 0 -0.0182,-0.0362 c 0,0 -9.44422,-13.61584 -10.31203,-14.83224 -0.15178,-0.21287 -0.45279,-0.9984 -0.76722,-2.00317 -0.31443,-1.00477 -0.66708,-2.25458 -1.05037,-3.50553 -0.38333,-1.25084 -0.79644,-2.50454 -1.21481,-3.53281 -0.41837,-1.02818 -0.8094,-1.82837 -1.31526,-2.21252 -0.74473,-0.56562 -1.47593,-1.74082 -1.99117,-2.76795 -0.5081,-1.01296 -0.81346,-1.85196 -0.82201,-1.87565 0,0 -0.01,-0.0266 -0.01,-0.0276 -0.0214,-0.0828 -1.3929,-5.29161 -6.07391,-7.138491 -1.24895,-0.492702 -2.43778,-0.70124 -3.53479,-0.691963 z"
       id="path8247"
       inkscape:connector-curvature="0" />
    <path
       style="font-size:medium;font-style:normal;font-variant:normal;font-weight:normal;font-stretch:normal;text-indent:0;text-align:start;text-decoration:none;line-height:normal;letter-spacing:normal;word-spacing:normal;text-transform:none;direction:ltr;block-progression:tb;writing-mode:lr-tb;text-anchor:start;baseline-shift:baseline;color:#000000;fill:#000000;fill-opacity:1;stroke:none;stroke-width:5;marker:none;visibility:visible;display:inline;overflow:visible;enable-background:accumulate;font-family:Sans;-inkscape-font-specification:Sans"
       d="m 88.70862,60.408489 c -0.15672,0 -0.31299,0.01005 -0.4658,0.01816 -1.2225,0.07988 -2.31961,0.427788 -3.2425,0.937844 -1.84579,1.020126 -3.01537,2.669496 -3.14202,4.161076 -0.01,0.10446 -0.007,0.20146 -0.01,0.30052 l -4.10106,2.86803 a 0.25891306,0.25810248 0 0 0 0.22833,0.45532 l 4.39338,-1.41127 c 0.34005,0.52326 0.78412,0.91693 1.21475,1.22001 0.48476,0.34114 0.93303,0.61158 1.16,0.88326 0.13697,0.16367 0.14553,0.31564 0.0822,0.52803 -0.0634,0.21248 -0.22061,0.46608 -0.41102,0.69198 -0.38078,0.452 -0.86772,0.80132 -0.86772,0.80132 a 0.25891306,0.25810248 0 0 0 -0.01,0.0181 l -0.43841,0.36417 c 0,0 -1.06541,0.95196 -2.21036,2.34917 -1.14498,1.39719 -2.38814,3.24107 -2.71273,5.08066 -0.3303,1.87108 -0.80333,4.41874 -1.03213,7.35693 a 0.25891306,0.25810248 0 0 0 -0.14613,0.0914 c 0,0 -0.8775,1.0572 -1.57101,2.51303 -0.69352,1.45581 -1.23098,3.34355 -0.48407,5.017 1.11404,2.49761 2.41423,3.60485 2.95019,3.98806 0.47953,3.012411 1.07532,6.291651 2.03683,9.141521 0.80825,2.39569 1.90109,4.44986 3.39777,5.83641 -0.21983,-0.02 -0.47134,-0.0495 -1.03214,-0.0362 -0.75941,0.0171 -1.64437,0.0982 -2.21949,0.52812 -0.51842,0.38749 -0.70477,0.79637 -0.7307,1.11992 -0.0261,0.32363 0.10956,0.56456 0.10956,0.56456 a 0.25891306,0.25810248 0 0 0 0.24661,0.11838 c 0,0 0.191,-0.0181 0.42014,-0.0276 0.22916,-0.0105 0.51345,0.01 0.60284,0.0276 0.005,6.3e-4 0.0679,0.0628 0.073,0.15473 0.003,0.0456 -0.008,0.0837 -0.018,0.1002 -0.0101,0.0171 -0.0135,0.0209 -0.0456,0.0276 -0.0407,0.01 -0.0725,0.0123 -0.13703,0.0542 -0.0322,0.0209 -0.0805,0.0561 -0.10955,0.12742 -0.0293,0.0714 -0.0188,0.17243 0.01,0.22771 0.0561,0.11039 0.1079,0.11742 0.14613,0.13655 0.0382,0.019 0.0709,0.0343 0.10956,0.0456 0.15475,0.0467 0.37446,0.0837 0.67589,0.10923 0.60288,0.0514 1.49864,0.0429 2.5118,-0.11837 1.63977,-0.26149 3.54814,-0.51051 4.15583,-0.59188 0.33196,0.10659 0.66282,0.19451 0.99561,0.28224 -0.11645,0.0457 -0.23868,0.0976 -0.35624,0.15482 -0.20801,0.10106 -0.40316,0.19556 -0.53889,0.38244 -0.0677,0.0933 -0.11749,0.24695 -0.0729,0.39149 0.0444,0.14462 0.1524,0.23313 0.27402,0.3005 0.30355,0.16823 0.34091,0.31003 0.48406,0.49168 0.0716,0.0904 0.20393,0.19754 0.36536,0.22762 0.16143,0.0305 0.32285,5.8e-4 0.53891,-0.0638 0.39337,-0.11762 0.76091,-0.21706 1.01383,-0.23676 0.12647,-0.0105 0.21861,6.3e-4 0.26489,0.0181 0.0463,0.0171 0.0488,0.0238 0.064,0.0637 0.0716,0.1909 0.11871,0.43317 0.32884,0.63738 0.21013,0.20411 0.54968,0.26776 1.02298,0.18202 0.44949,-0.0818 1.1517,-0.24664 1.78107,-0.39147 0.31469,-0.0723 0.60989,-0.14254 0.84032,-0.19118 0.23043,-0.0485 0.43561,-0.0723 0.42015,-0.0723 0.16942,0 0.27329,-0.0599 0.39273,-0.12751 0.11949,-0.0676 0.23627,-0.15396 0.3471,-0.23675 0.22169,-0.16567 0.40188,-0.32782 0.40188,-0.32782 a 0.25891306,0.25810248 0 0 0 0.0729,-0.30042 c 1.16673,-0.0171 2.00987,-0.0971 2.30171,-0.13663 0.78343,-0.10639 1.45946,-0.60664 2.03684,-1.34754 0.57737,-0.7409 1.06766,-1.7274 1.49793,-2.88632 0.86051,-2.31786 1.47117,-5.31209 1.90895,-8.27654 0.81024,-5.486701 0.9959,-10.433481 1.02298,-11.208541 0.3156,0.29717 1.5275,1.4523 3.31556,3.02297 1.00209,0.88021 2.08066,1.79372 3.05069,2.5585 0.96999,0.76489 1.82233,1.374471 2.43869,1.666321 0.59814,0.28318 1.00735,0.37854 1.34268,0.25492 0.16764,-0.0619 0.30415,-0.19563 0.37447,-0.33695 0.0704,-0.14121 0.0897,-0.2908 0.0914,-0.43696 0.005,-0.584941 -0.3014,-1.211071 -0.3014,-1.211071 a 0.25891306,0.25810248 0 0 0 -0.0182,-0.0362 c 0,0 -9.44422,-13.61584 -10.31203,-14.83224 -0.15178,-0.21287 -0.45279,-0.9984 -0.76722,-2.00317 -0.31443,-1.00477 -0.66708,-2.25458 -1.05037,-3.50553 -0.38333,-1.25084 -0.79644,-2.50454 -1.21481,-3.53281 -0.41837,-1.02818 -0.8094,-1.82837 -1.31526,-2.21252 -0.74473,-0.56562 -1.47593,-1.74082 -1.99117,-2.76795 -0.5081,-1.01296 -0.81346,-1.85196 -0.82201,-1.87565 0,0 -0.01,-0.0266 -0.01,-0.0276 -0.0214,-0.0828 -1.3929,-5.29161 -6.07391,-7.138491 -1.24895,-0.492702 -2.43778,-0.70124 -3.53479,-0.691963 z m 4.63083,5.38114 c 0.72623,-0.0445 1.53125,0.17965 2.10988,1.11086 1.3233,2.1284 -2.01236,3.18969 -3.12375,3.23232 -0.57028,0.0219 -6.52149,0.41889 -6.52149,0.41889 0,0 0.14906,-0.17414 0.10045,-0.68295 -0.18195,-0.36379 -0.43841,-0.52813 -0.43841,-0.52813 0,0 2.58887,-0.22904 3.31553,-0.60995 0.72704,-0.38064 2.82235,-2.38561 2.82235,-2.38561 0,0 0.80169,-0.49835 1.73541,-0.55543 z m -6.34798,7.60281 c 1.90368,-0.0418 4.47977,0.22619 7.1974,1.41128 0.0289,0.0314 0.0631,0.0628 0.10966,0.11838 0.12686,0.15036 0.29935,0.37207 0.50238,0.63737 0.40597,0.5306 0.9206,1.23239 1.42486,1.93028 0.9524,1.31822 1.76449,2.48133 1.86329,2.62236 l 1.78105,18.80213 -3.49819,16.261801 c -1.35911,-0.0115 -6.883,-0.21658 -11.27107,-3.03202 -1.88536,-1.20964 -3.23455,-3.95019 -4.15588,-7.21124 -0.92132,-3.26106 -1.43801,-6.988961 -1.91808,-10.079501 -0.93418,-6.01378 0.13835,-11.37507 0.73069,-14.73213 0.25325,-1.43518 1.3283,-3.10453 2.36568,-4.37041 0.92335,-1.12686 1.68481,-1.83997 1.86327,-2.00317 0.20003,-0.0523 1.25676,-0.31678 3.005,-0.35513 z"
       id="path8196"
       inkscape:connector-curvature="0" />
  </g>
  <g
     inkscape:groupmode="layer"
     id="layer4"
     inkscape:label="text">
    <g
       transform="matrix(1.0015691,0,0,0.99843336,-8,0)"
       style="font-size:68px;font-style:normal;font-variant:normal;font-weight:500;font-stretch:normal;text-align:start;line-height:100%;letter-spacing:1.39999998px;word-spacing:0px;writing-mode:lr-tb;text-anchor:start;fill:#000000;fill-opacity:1;stroke:none;display:inline;enable-background:new;font-family:Ostrich Sans;-inkscape-font-specification:Ostrich Sans Medium"
       id="text3942-7-3-9-3">
      <path
         d="m 192.74679,82.389008 -2.176,0 3.604,-15.912 0,-0.204 0,0 6.936,-29.716 1.7,0 10.472,45.832 -2.176,0 -3.128,-14.008 -12.104,0 -3.128,14.008 m 9.18,-40.052 -5.508,23.936 11.084,0 -5.576,-23.936"
         style="line-height:100%;fill:#000000;font-family:Ostrich Sans;-inkscape-font-specification:Ostrich Sans Medium"
         id="path3126"
         inkscape:connector-curvature="0" />
      <path
         d="m 236.52196,61.513008 c 2.03998,1.949352 3.05998,4.646682 3.06,8.092 l 0,12.716 -2.176,0 0,-12.716 c -2e-5,-2.765318 -0.74802,-4.895983 -2.244,-6.392 -1.49601,-1.541313 -3.60401,-2.311979 -6.324,-2.312 l -1.02,0 -5.1,0 0,21.42 -2.108,0 0,-45.832 8.228,0 c 3.67199,4.5e-5 6.34665,0.997378 8.024,2.992 1.72265,1.949374 2.58398,5.009371 2.584,9.18 -2e-5,4.080029 -0.83868,7.11736 -2.516,9.112 -0.72535,0.861357 -1.63201,1.564023 -2.72,2.108 0.86132,0.408022 1.63199,0.952021 2.312,1.632 m -7.684,-2.788 c 3.03732,2.3e-5 5.19065,-0.770643 6.46,-2.312 1.35998,-1.631973 2.03998,-4.21597 2.04,-7.752 -2e-5,-3.581296 -0.65735,-6.142627 -1.972,-7.684 -1.31468,-1.541291 -3.49068,-2.311957 -6.528,-2.312 l -6.12,0 0,20.06 5.1,0 1.02,0"
         style="line-height:100%;fill:#000000;font-family:Ostrich Sans;-inkscape-font-specification:Ostrich Sans Medium"
         id="path3128"
         inkscape:connector-curvature="0" />
      <path
         d="m 266.63361,36.489008 0,2.176 -11.016,0 0,43.656 -2.108,0 0,-43.656 -10.948,0 0,-2.176 24.072,0 0,0"
         style="line-height:100%;fill:#000000;font-family:Ostrich Sans;-inkscape-font-specification:Ostrich Sans Medium"
         id="path3130"
         inkscape:connector-curvature="0" />
      <path
         d="m 298.89211,45.261008 0,37.128 -2.108,0 0,-45.832 1.836,0 11.764,40.868 11.696,-40.868 1.904,0 0,45.832 -2.176,0 0,-37.128 -10.608,37.128 -1.632,0 -10.676,-37.128 0,0"
         style="line-height:100%;fill:#000000;font-family:Ostrich Sans;-inkscape-font-specification:Ostrich Sans Medium"
         id="path3132"
         inkscape:connector-curvature="0" />
      <path
         d="m 332.76955,38.665008 0,19.72 14.348,0 0,2.108 -14.348,0 0,19.788 14.348,0 0,2.108 -16.456,0 0,-45.832 16.456,0 0,2.108 -14.348,0"
         style="line-height:100%;fill:#000000;font-family:Ostrich Sans;-inkscape-font-specification:Ostrich Sans Medium"
         id="path3134"
         inkscape:connector-curvature="0" />
      <path
         d="m 354.75548,38.665008 0,19.72 14.348,0 0,2.108 -14.348,0 0,19.788 14.348,0 0,2.108 -16.456,0 0,-45.832 16.456,0 0,2.108 -14.348,0"
         style="line-height:100%;fill:#000000;font-family:Ostrich Sans;-inkscape-font-specification:Ostrich Sans Medium"
         id="path3136"
         inkscape:connector-curvature="0" />
      <path
         d="m 397.4275,36.489008 0,2.176 -11.016,0 0,43.656 -2.108,0 0,-43.656 -10.948,0 0,-2.176 24.072,0 0,0"
         style="line-height:100%;fill:#000000;font-family:Ostrich Sans;-inkscape-font-specification:Ostrich Sans Medium"
         id="path3138"
         inkscape:connector-curvature="0" />
      <path
         d="m 411.30894,82.321008 c -3.264,0 -5.712,-1.042666 -7.344,-3.128 -1.632,-1.949329 -2.448,-4.941326 -2.448,-8.976 l 0,-1.02 2.108,0 0,1.02 c 0,2.266676 0.24933,4.057341 0.748,5.372 0.49867,1.314672 1.11067,2.312004 1.836,2.992 0.77067,0.680003 1.60933,1.133336 2.516,1.36 0.90666,0.181335 1.76799,0.272002 2.584,0.272 2.44799,2e-6 4.32932,-0.838664 5.644,-2.516 1.35999,-1.722661 2.03999,-4.102658 2.04,-7.14 -10e-6,-1.631987 -0.29468,-2.991986 -0.884,-4.08 -0.54401,-1.133317 -1.22401,-2.062649 -2.04,-2.788 -0.77068,-0.725314 -1.58668,-1.29198 -2.448,-1.7 -0.86134,-0.40798 -1.56401,-0.725313 -2.108,-0.952 l -1.156,-0.476 c -0.68,-0.271978 -1.51867,-0.657311 -2.516,-1.156 -0.99733,-0.543977 -1.972,-1.26931 -2.924,-2.176 -0.90667,-0.951974 -1.7,-2.107973 -2.38,-3.468 -0.68,-1.405304 -1.02,-3.105302 -1.02,-5.1 0,-3.445297 0.79334,-6.278627 2.38,-8.5 1.81333,-2.447956 4.284,-3.671955 7.412,-3.672 3.21866,4.5e-5 5.68932,1.065378 7.412,3.196 1.63199,2.04004 2.44798,5.032037 2.448,8.976 l 0,1.088 -2.176,0 0,-1.088 c -10e-6,-3.445297 -0.65735,-6.006627 -1.972,-7.684 -1.22401,-1.541291 -3.12801,-2.311957 -5.712,-2.312 -2.448,4.3e-5 -4.32933,0.929376 -5.644,2.788 -1.36,1.858705 -2.04,4.26137 -2.04,7.208 0,1.632032 0.272,3.014697 0.816,4.148 0.544,1.133361 1.20133,2.08536 1.972,2.856 0.816,0.770692 1.65466,1.382692 2.516,1.836 0.86133,0.453357 1.63199,0.816024 2.312,1.088 l 1.088,0.476 c 0.58933,0.226689 1.38266,0.589356 2.38,1.088 0.99732,0.453355 1.97199,1.133354 2.924,2.04 0.95199,0.861352 1.76799,1.972018 2.448,3.332 0.72532,1.360015 1.08798,3.037347 1.088,5.032 -2e-5,3.400008 -0.81601,6.165339 -2.448,8.296 -1.76801,2.312001 -4.23868,3.468 -7.412,3.468"
         style="line-height:100%;fill:#000000;font-family:Ostrich Sans;-inkscape-font-specification:Ostrich Sans Medium"
         id="path3140"
         inkscape:connector-curvature="0" />
      <path
         d="m 470.67848,61.513008 c 2.03998,1.949352 3.05998,4.646682 3.06,8.092 l 0,12.716 -2.176,0 0,-12.716 c -2e-5,-2.765318 -0.74802,-4.895983 -2.244,-6.392 -1.49602,-1.541313 -3.60401,-2.311979 -6.324,-2.312 l -1.02,0 -5.1,0 0,21.42 -2.108,0 0,-45.832 8.228,0 c 3.67199,4.5e-5 6.34665,0.997378 8.024,2.992 1.72265,1.949374 2.58398,5.009371 2.584,9.18 -2e-5,4.080029 -0.83869,7.11736 -2.516,9.112 -0.72535,0.861357 -1.63202,1.564023 -2.72,2.108 0.86132,0.408022 1.63198,0.952021 2.312,1.632 m -7.684,-2.788 c 3.03732,2.3e-5 5.19065,-0.770643 6.46,-2.312 1.35998,-1.631973 2.03998,-4.21597 2.04,-7.752 -2e-5,-3.581296 -0.65735,-6.142627 -1.972,-7.684 -1.31468,-1.541291 -3.49068,-2.311957 -6.528,-2.312 l -6.12,0 0,20.06 5.1,0 1.02,0"
         style="line-height:100%;fill:#000000;font-family:Ostrich Sans;-inkscape-font-specification:Ostrich Sans Medium"
         id="path3142"
         inkscape:connector-curvature="0" />
      <path
         d="m 482.04791,82.389008 -2.176,0 3.604,-15.912 0,-0.204 0,0 6.936,-29.716 1.7,0 10.472,45.832 -2.176,0 -3.128,-14.008 -12.104,0 -3.128,14.008 m 9.18,-40.052 -5.508,23.936 11.084,0 -5.576,-23.936"
         style="line-height:100%;fill:#000000;font-family:Ostrich Sans;-inkscape-font-specification:Ostrich Sans Medium"
         id="path3144"
         inkscape:connector-curvature="0" />
      <path
         d="m 515.92322,82.389008 -7.82,0 0,-45.832 7.82,0 c 3.62665,4.5e-5 6.32398,1.088044 8.092,3.264 1.67731,1.994707 2.51598,5.032037 2.516,9.112 l 0,21.08 c -2e-5,4.080008 -0.83869,7.117338 -2.516,9.112 -1.76802,2.176001 -4.46535,3.264 -8.092,3.264 m -5.712,-2.108 5.712,0 c 2.94665,2e-6 5.07732,-0.815998 6.392,-2.448 1.35998,-1.677328 2.03998,-4.283992 2.04,-7.82 l 0,-21.08 c -2e-5,-3.535963 -0.68002,-6.119961 -2.04,-7.752 -1.31468,-1.677291 -3.44535,-2.515957 -6.392,-2.516 l -5.712,0 0,41.616"
         style="line-height:100%;fill:#000000;font-family:Ostrich Sans;-inkscape-font-specification:Ostrich Sans Medium"
         id="path3146"
         inkscape:connector-curvature="0" />
      <path
         d="m 535.99987,82.389008 -2.108,0 0,-45.832 2.108,0 0,45.832 0,0 0,0"
         style="line-height:100%;fill:#000000;font-family:Ostrich Sans;-inkscape-font-specification:Ostrich Sans Medium"
         id="path3148"
         inkscape:connector-curvature="0" />
      <path
         d="m 551.50136,82.389008 c -1.13334,0 -2.28934,-0.158667 -3.468,-0.476 -1.13334,-0.317333 -2.17601,-0.929332 -3.128,-1.836 -0.952,-0.906664 -1.72267,-2.130663 -2.312,-3.672 -0.58933,-1.58666 -0.884,-3.649324 -0.884,-6.188 l 0,-21.556 c 0,-2.493298 0.29467,-4.533296 0.884,-6.12 0.58933,-1.586626 1.36,-2.810624 2.312,-3.672 0.95199,-0.906623 1.99466,-1.518622 3.128,-1.836 1.17866,-0.317288 2.33466,-0.475955 3.468,-0.476 1.08799,4.5e-5 2.19865,0.158712 3.332,0.476 1.17865,0.317378 2.24398,0.929377 3.196,1.836 0.95198,0.861376 1.72265,2.085374 2.312,3.672 0.58931,1.586704 0.88398,3.626702 0.884,6.12 l 0,1.088 -2.176,0 0,-1.088 c -2e-5,-3.49063 -0.63468,-6.029294 -1.904,-7.616 -1.31468,-1.586624 -3.19601,-2.379957 -5.644,-2.38 -2.49334,4.3e-5 -4.39734,0.793376 -5.712,2.38 -1.26934,1.586706 -1.904,4.12537 -1.904,7.616 l 0,21.556 c 0,3.490675 0.65733,6.052006 1.972,7.684 1.22399,1.586669 3.10533,2.380002 5.644,2.38 2.44799,2e-6 4.32932,-0.793331 5.644,-2.38 1.26932,-1.677328 1.90398,-4.238658 1.904,-7.684 l 0,-1.088 2.176,0 0,1.088 c -2e-5,2.538676 -0.29469,4.60134 -0.884,6.188 -0.58935,1.541337 -1.36002,2.765336 -2.312,3.672 -0.95202,0.906668 -2.01735,1.518667 -3.196,1.836 -1.13335,0.317333 -2.24401,0.476 -3.332,0.476"
         style="line-height:100%;fill:#000000;font-family:Ostrich Sans;-inkscape-font-specification:Ostrich Sans Medium"
         id="path3150"
         inkscape:connector-curvature="0" />
      <path
         d="m 568.79635,82.389008 -2.176,0 3.604,-15.912 0,-0.204 0,0 6.936,-29.716 1.7,0 10.472,45.832 -2.176,0 -3.128,-14.008 -12.104,0 -3.128,14.008 m 9.18,-40.052 -5.508,23.936 11.084,0 -5.576,-23.936"
         style="line-height:100%;fill:#000000;font-family:Ostrich Sans;-inkscape-font-specification:Ostrich Sans Medium"
         id="path3152"
         inkscape:connector-curvature="0" />
      <path
         d="m 611.85166,82.389008 -17.544,0 0,-45.832 2.176,0 0,43.724 15.368,0 0,2.108 0,0 0,0"
         style="line-height:100%;fill:#000000;font-family:Ostrich Sans;-inkscape-font-specification:Ostrich Sans Medium"
         id="path3154"
         inkscape:connector-curvature="0" />
      <path
         d="m 651.10769,82.389008 c -1.08801,0 -2.22134,-0.158667 -3.4,-0.476 -1.13334,-0.317333 -2.17601,-0.929332 -3.128,-1.836 -0.952,-0.906664 -1.72267,-2.130663 -2.312,-3.672 -0.58933,-1.58666 -0.884,-3.649324 -0.884,-6.188 l 0,-21.556 c 0,-3.898629 0.79333,-6.890626 2.38,-8.976 1.67733,-2.085289 4.12533,-3.127955 7.344,-3.128 3.26399,4.5e-5 5.71198,1.042711 7.344,3.128 1.63198,2.04004 2.44798,5.032037 2.448,8.976 l 0,21.556 c -2e-5,2.538676 -0.29469,4.60134 -0.884,6.188 -0.58935,1.541337 -1.36002,2.765336 -2.312,3.672 -0.95202,0.906668 -2.01735,1.518667 -3.196,1.836 -1.13335,0.317333 -2.26668,0.476 -3.4,0.476 m 0,-43.724 c -2.58401,4.3e-5 -4.46534,0.793376 -5.644,2.38 -1.31467,1.677373 -1.972,4.216037 -1.972,7.616 l 0,21.556 c 0,3.445342 0.65733,6.006672 1.972,7.684 1.22399,1.586669 3.10533,2.380002 5.644,2.38 2.49332,2e-6 4.39732,-0.793331 5.712,-2.38 1.26932,-1.586661 1.90398,-4.147992 1.904,-7.684 l 0,-21.556 c -2e-5,-3.49063 -0.63468,-6.029294 -1.904,-7.616 -1.26935,-1.586624 -3.17335,-2.379957 -5.712,-2.38"
         style="line-height:100%;fill:#000000;font-family:Ostrich Sans;-inkscape-font-specification:Ostrich Sans Medium"
         id="path3156"
         inkscape:connector-curvature="0" />
      <path
         d="m 669.13156,82.389008 -2.108,0 0,-45.832 8.228,0 c 3.67199,4.5e-5 6.36932,0.997378 8.092,2.992 1.72265,1.994707 2.58398,4.986704 2.584,8.976 -2e-5,3.989363 -0.86135,6.98136 -2.584,8.976 -1.72268,1.994689 -4.42001,2.992021 -8.092,2.992 l -6.12,0 0,21.896 m 0,-24.004 6.12,0 c 2.99199,2.4e-5 5.16798,-0.770642 6.528,-2.312 1.31465,-1.586639 1.97198,-4.102637 1.972,-7.548 -2e-5,-3.535963 -0.65735,-6.051961 -1.972,-7.548 -1.31468,-1.541291 -3.49068,-2.311957 -6.528,-2.312 l -6.12,0 0,19.72"
         style="line-height:100%;fill:#000000;font-family:Ostrich Sans;-inkscape-font-specification:Ostrich Sans Medium"
         id="path3158"
         inkscape:connector-curvature="0" />
      <path
         d="m 693.57293,38.665008 0,19.72 14.348,0 0,2.108 -14.348,0 0,19.788 14.348,0 0,2.108 -16.456,0 0,-45.832 16.456,0 0,2.108 -14.348,0"
         style="line-height:100%;fill:#000000;font-family:Ostrich Sans;-inkscape-font-specification:Ostrich Sans Medium"
         id="path3160"
         inkscape:connector-curvature="0" />
      <path
         d="m 715.55886,43.153008 0,39.236 -2.176,0 0,-45.832 1.836,0 15.776,39.236 0,-39.236 2.176,0 0,45.832 -1.768,0 -15.844,-39.236 0,0"
         style="line-height:100%;fill:#000000;font-family:Ostrich Sans;-inkscape-font-specification:Ostrich Sans Medium"
         id="path3162"
         inkscape:connector-curvature="0" />
      <path
         d="m 741.5292,43.153008 0,39.236 -2.176,0 0,-45.832 1.836,0 15.776,39.236 0,-39.236 2.176,0 0,45.832 -1.768,0 -15.844,-39.236 0,0"
         style="line-height:100%;fill:#000000;font-family:Ostrich Sans;-inkscape-font-specification:Ostrich Sans Medium"
         id="path3164"
         inkscape:connector-curvature="0" />
      <path
         d="m 767.49947,38.665008 0,19.72 14.348,0 0,2.108 -14.348,0 0,19.788 14.348,0 0,2.108 -16.456,0 0,-45.832 16.456,0 0,2.108 -14.348,0"
         style="line-height:100%;fill:#000000;font-family:Ostrich Sans;-inkscape-font-specification:Ostrich Sans Medium"
         id="path3166"
         inkscape:connector-curvature="0" />
      <path
         d="m 797.16943,82.321008 c -3.264,0 -5.712,-1.042666 -7.344,-3.128 -1.632,-1.949329 -2.448,-4.941326 -2.448,-8.976 l 0,-1.02 2.108,0 0,1.02 c 0,2.266676 0.24933,4.057341 0.748,5.372 0.49867,1.314672 1.11067,2.312004 1.836,2.992 0.77066,0.680003 1.60933,1.133336 2.516,1.36 0.90666,0.181335 1.76799,0.272002 2.584,0.272 2.44799,2e-6 4.32932,-0.838664 5.644,-2.516 1.35999,-1.722661 2.03999,-4.102658 2.04,-7.14 -10e-6,-1.631987 -0.29468,-2.991986 -0.884,-4.08 -0.54401,-1.133317 -1.22401,-2.062649 -2.04,-2.788 -0.77068,-0.725314 -1.58668,-1.29198 -2.448,-1.7 -0.86134,-0.40798 -1.56401,-0.725313 -2.108,-0.952 l -1.156,-0.476 c -0.68001,-0.271978 -1.51867,-0.657311 -2.516,-1.156 -0.99734,-0.543977 -1.972,-1.26931 -2.924,-2.176 -0.90667,-0.951974 -1.7,-2.107973 -2.38,-3.468 -0.68,-1.405304 -1.02,-3.105302 -1.02,-5.1 0,-3.445297 0.79334,-6.278627 2.38,-8.5 1.81333,-2.447956 4.284,-3.671955 7.412,-3.672 3.21866,4.5e-5 5.68932,1.065378 7.412,3.196 1.63198,2.04004 2.44798,5.032037 2.448,8.976 l 0,1.088 -2.176,0 0,-1.088 c -10e-6,-3.445297 -0.65735,-6.006627 -1.972,-7.684 -1.22401,-1.541291 -3.12801,-2.311957 -5.712,-2.312 -2.448,4.3e-5 -4.32934,0.929376 -5.644,2.788 -1.36,1.858705 -2.04,4.26137 -2.04,7.208 0,1.632032 0.272,3.014697 0.816,4.148 0.544,1.133361 1.20133,2.08536 1.972,2.856 0.816,0.770692 1.65466,1.382692 2.516,1.836 0.86133,0.453357 1.63199,0.816024 2.312,1.088 l 1.088,0.476 c 0.58932,0.226689 1.38266,0.589356 2.38,1.088 0.99732,0.453355 1.97199,1.133354 2.924,2.04 0.95199,0.861352 1.76798,1.972018 2.448,3.332 0.72532,1.360015 1.08798,3.037347 1.088,5.032 -2e-5,3.400008 -0.81602,6.165339 -2.448,8.296 -1.76801,2.312001 -4.23868,3.468 -7.412,3.468"
         style="line-height:100%;fill:#000000;font-family:Ostrich Sans;-inkscape-font-specification:Ostrich Sans Medium"
         id="path3168"
         inkscape:connector-curvature="0" />
      <path
         d="m 822.21008,82.321008 c -3.264,0 -5.712,-1.042666 -7.344,-3.128 -1.632,-1.949329 -2.448,-4.941326 -2.448,-8.976 l 0,-1.02 2.108,0 0,1.02 c 0,2.266676 0.24933,4.057341 0.748,5.372 0.49867,1.314672 1.11066,2.312004 1.836,2.992 0.77066,0.680003 1.60933,1.133336 2.516,1.36 0.90666,0.181335 1.76799,0.272002 2.584,0.272 2.44799,2e-6 4.32932,-0.838664 5.644,-2.516 1.35999,-1.722661 2.03998,-4.102658 2.04,-7.14 -2e-5,-1.631987 -0.29468,-2.991986 -0.884,-4.08 -0.54401,-1.133317 -1.22401,-2.062649 -2.04,-2.788 -0.77068,-0.725314 -1.58668,-1.29198 -2.448,-1.7 -0.86134,-0.40798 -1.56401,-0.725313 -2.108,-0.952 l -1.156,-0.476 c -0.68001,-0.271978 -1.51867,-0.657311 -2.516,-1.156 -0.99734,-0.543977 -1.972,-1.26931 -2.924,-2.176 -0.90667,-0.951974 -1.7,-2.107973 -2.38,-3.468 -0.68,-1.405304 -1.02,-3.105302 -1.02,-5.1 0,-3.445297 0.79333,-6.278627 2.38,-8.5 1.81333,-2.447956 4.284,-3.671955 7.412,-3.672 3.21866,4.5e-5 5.68932,1.065378 7.412,3.196 1.63198,2.04004 2.44798,5.032037 2.448,8.976 l 0,1.088 -2.176,0 0,-1.088 c -2e-5,-3.445297 -0.65735,-6.006627 -1.972,-7.684 -1.22401,-1.541291 -3.12801,-2.311957 -5.712,-2.312 -2.44801,4.3e-5 -4.32934,0.929376 -5.644,2.788 -1.36,1.858705 -2.04,4.26137 -2.04,7.208 0,1.632032 0.272,3.014697 0.816,4.148 0.544,1.133361 1.20133,2.08536 1.972,2.856 0.816,0.770692 1.65466,1.382692 2.516,1.836 0.86133,0.453357 1.63199,0.816024 2.312,1.088 l 1.088,0.476 c 0.58932,0.226689 1.38266,0.589356 2.38,1.088 0.99732,0.453355 1.97199,1.133354 2.924,2.04 0.95199,0.861352 1.76798,1.972018 2.448,3.332 0.72532,1.360015 1.08798,3.037347 1.088,5.032 -2e-5,3.400008 -0.81602,6.165339 -2.448,8.296 -1.76801,2.312001 -4.23868,3.468 -7.412,3.468"
         style="line-height:100%;fill:#000000;font-family:Ostrich Sans;-inkscape-font-specification:Ostrich Sans Medium"
         id="path3170"
         inkscape:connector-curvature="0" />
      <path
         d="m 879.73975,82.389008 -1.088,0 -7.412,0 -8.5,0 0,-1.088 c 0,-2.039997 0.136,-3.898662 0.408,-5.576 0.272,-1.677325 0.68,-3.241324 1.224,-4.692 1.17866,-3.309319 3.24133,-6.301316 6.188,-8.976 4.66932,-4.261309 7.00399,-9.111971 7.004,-14.552 -10e-6,-2.719963 -0.54401,-4.873294 -1.632,-6.46 -1.08801,-1.586624 -2.65201,-2.379957 -4.692,-2.38 -2.13067,4.3e-5 -3.69467,0.702709 -4.692,2.108 -1.088,1.49604 -1.632,3.830704 -1.632,7.004 l 0,1.088 -2.176,0 0,-1.088 c 0,-3.581296 0.70267,-6.346626 2.108,-8.296 1.40533,-1.949289 3.536,-2.923955 6.392,-2.924 2.71999,4.5e-5 4.87332,1.088044 6.46,3.264 1.35998,1.994707 2.03998,4.556038 2.04,7.684 -2e-5,6.165362 -2.58401,11.560023 -7.752,16.184 -2.40267,2.130683 -4.17067,4.51068 -5.304,7.14 -1.088,2.629342 -1.67733,5.780005 -1.768,9.452 l 6.324,0 7.412,0 1.088,0 0,2.108"
         style="line-height:100%;fill:#000000;font-family:Ostrich Sans;-inkscape-font-specification:Ostrich Sans Medium"
         id="path3172"
         inkscape:connector-curvature="0" />
      <path
         d="m 894.21703,82.389008 c -2.85601,0 -5.00934,-1.133333 -6.46,-3.4 -1.36001,-2.039995 -2.04,-5.009325 -2.04,-8.908 l 0,-21.284 c 0,-3.89863 0.67999,-6.86796 2.04,-8.908 1.40533,-2.221289 3.55866,-3.331955 6.46,-3.332 2.85598,4.5e-5 4.98665,1.110711 6.392,3.332 1.40531,2.130707 2.10798,5.100037 2.108,8.908 l 0,21.284 c -2e-5,3.808008 -0.68002,6.777338 -2.04,8.908 -1.49602,2.266667 -3.64935,3.4 -6.46,3.4 m 0,-43.724 c -4.26134,4.3e-5 -6.39201,3.377373 -6.392,10.132 l 0,21.284 c -10e-6,6.800005 2.13066,10.200002 6.392,10.2 4.21598,2e-6 6.32398,-3.399995 6.324,-10.2 l 0,-21.284 c -2e-5,-6.754627 -2.10802,-10.131957 -6.324,-10.132"
         style="line-height:100%;fill:#000000;font-family:Ostrich Sans;-inkscape-font-specification:Ostrich Sans Medium"
         id="path3174"
         inkscape:connector-curvature="0" />
      <path
         d="m 915.76624,36.557008 2.108,0 0,45.832 -2.176,0 0,-42.16 -5.236,6.732 -1.632,-1.36 6.936,-9.044 0,0"
         style="line-height:100%;fill:#000000;font-family:Ostrich Sans;-inkscape-font-specification:Ostrich Sans Medium"
         id="path3176"
         inkscape:connector-curvature="0" />
      <path
         d="m 937.2507,59.473008 c 0.90665,0.453355 1.67732,1.133355 2.312,2.04 1.45065,1.904019 2.17598,4.873349 2.176,8.908 -2e-5,4.034674 -0.72535,7.004005 -2.176,8.908 -1.49601,2.040001 -3.83068,3.06 -7.004,3.06 -3.21867,0 -5.576,-1.019999 -7.072,-3.06 -1.45067,-1.994662 -2.176,-4.963992 -2.176,-8.908 0,-3.943985 0.72533,-6.913315 2.176,-8.908 0.63466,-0.906645 1.40533,-1.586645 2.312,-2.04 -0.90667,-0.498644 -1.67734,-1.178643 -2.312,-2.04 -1.45067,-1.99464 -2.176,-4.963971 -2.176,-8.908 0,-3.943963 0.72533,-6.913293 2.176,-8.908 1.496,-2.039956 3.85333,-3.059955 7.072,-3.06 3.17332,4.5e-5 5.50799,1.020044 7.004,3.06 1.45065,1.90404 2.17598,4.873371 2.176,8.908 -2e-5,4.034696 -0.72535,7.004026 -2.176,8.908 -0.63468,0.861357 -1.40535,1.541356 -2.312,2.04 m -10.064,-3.332 c 1.13333,1.496024 2.92399,2.244024 5.372,2.244 2.44799,2.4e-5 4.21599,-0.747976 5.304,-2.244 1.13332,-1.541306 1.69998,-4.07997 1.7,-7.616 -2e-5,-3.535963 -0.56668,-6.074627 -1.7,-7.616 -1.08801,-1.495957 -2.85601,-2.243957 -5.304,-2.244 -2.44801,4.3e-5 -4.23867,0.748043 -5.372,2.244 -1.13334,1.541373 -1.7,4.080037 -1.7,7.616 0,3.53603 0.56666,6.074694 1.7,7.616 m 10.676,21.896 c 1.13332,-1.541328 1.69998,-4.079992 1.7,-7.616 -2e-5,-3.535985 -0.56668,-6.097316 -1.7,-7.684 -1.08801,-1.495979 -2.85601,-2.243979 -5.304,-2.244 -2.44801,2.1e-5 -4.23867,0.748021 -5.372,2.244 -1.13334,1.586684 -1.7,4.148015 -1.7,7.684 0,3.536008 0.56666,6.074672 1.7,7.616 1.13333,1.496002 2.92399,2.244002 5.372,2.244 2.44799,2e-6 4.21599,-0.747998 5.304,-2.244"
         style="line-height:100%;fill:#000000;font-family:Ostrich Sans;-inkscape-font-specification:Ostrich Sans Medium"
         id="path3178"
         inkscape:connector-curvature="0" />
    </g>
    <g
       transform="matrix(1.0015691,0,0,0.99843336,-8,0)"
       style="font-size:46px;font-style:normal;font-variant:normal;font-weight:500;font-stretch:normal;text-align:start;line-height:100%;letter-spacing:0px;word-spacing:0px;writing-mode:lr-tb;text-anchor:start;fill:#000000;fill-opacity:1;stroke:none;display:inline;enable-background:new;font-family:Ostrich Sans;-inkscape-font-specification:Ostrich Sans Medium"
       id="text3942-7-3-9-2-3">
      <path
         d="m 202.39754,105.59728 -9.706,0 0,13.34 9.706,0 0,1.426 -9.706,0 0,14.812 -1.426,0 0,-31.004 11.132,0 0,1.426 0,0"
         style="line-height:100%;fill:#000000;font-family:Ostrich Sans;-inkscape-font-specification:Ostrich Sans Medium"
         id="path3181"
         inkscape:connector-curvature="0" />
      <path
         d="m 207.02485,105.59728 0,13.34 9.706,0 0,1.426 -9.706,0 0,13.386 9.706,0 0,1.426 -11.132,0 0,-31.004 11.132,0 0,1.426 -9.706,0"
         style="line-height:100%;fill:#000000;font-family:Ostrich Sans;-inkscape-font-specification:Ostrich Sans Medium"
         id="path3183"
         inkscape:connector-curvature="0" />
      <path
         d="m 226.14864,135.12928 c -2.20801,0 -3.86401,-0.70533 -4.968,-2.116 -1.104,-1.31867 -1.656,-3.34266 -1.656,-6.072 l 0,-0.69 1.426,0 0,0.69 c -1e-5,1.53334 0.16866,2.74467 0.506,3.634 0.33733,0.88933 0.75133,1.564 1.242,2.024 0.52133,0.46 1.08866,0.76667 1.702,0.92 0.61332,0.12267 1.19599,0.184 1.748,0.184 1.65599,0 2.92865,-0.56733 3.818,-1.702 0.91998,-1.16533 1.37998,-2.77533 1.38,-4.83 -2e-5,-1.10399 -0.19935,-2.02399 -0.598,-2.76 -0.36802,-0.76666 -0.82801,-1.39532 -1.38,-1.886 -0.52135,-0.49066 -1.07335,-0.87399 -1.656,-1.15 -0.58268,-0.27599 -1.05801,-0.49065 -1.426,-0.644 l -0.782,-0.322 c -0.46001,-0.18399 -1.02734,-0.44465 -1.702,-0.782 -0.67467,-0.36799 -1.33401,-0.85865 -1.978,-1.472 -0.61334,-0.64398 -1.15001,-1.42598 -1.61,-2.346 -0.46,-0.95065 -0.69,-2.10065 -0.69,-3.45 0,-2.33064 0.53666,-4.24731 1.61,-5.75 1.22666,-1.65597 2.89799,-2.48397 5.014,-2.484 2.17732,3e-5 3.84865,0.72069 5.014,2.162 1.10398,1.38003 1.65598,3.40402 1.656,6.072 l 0,0.736 -1.472,0 0,-0.736 c -2e-5,-2.33064 -0.44468,-4.06331 -1.334,-5.198 -0.82801,-1.04264 -2.11601,-1.56397 -3.864,-1.564 -1.65601,3e-5 -2.92867,0.62869 -3.818,1.886 -0.92001,1.25736 -1.38001,2.88269 -1.38,4.876 -1e-5,1.10402 0.18399,2.03935 0.552,2.806 0.36799,0.76668 0.81266,1.41068 1.334,1.932 0.55199,0.52135 1.11932,0.93535 1.702,1.242 0.58266,0.30668 1.10399,0.55201 1.564,0.736 l 0.736,0.322 c 0.39865,0.15335 0.93532,0.39868 1.61,0.736 0.67465,0.30668 1.33399,0.76668 1.978,1.38 0.64398,0.58268 1.19598,1.33401 1.656,2.254 0.49065,0.92001 0.73598,2.05467 0.736,3.404 -2e-5,2.3 -0.55202,4.17067 -1.656,5.612 -1.19601,1.564 -2.86735,2.346 -5.014,2.346"
         style="line-height:100%;fill:#000000;font-family:Ostrich Sans;-inkscape-font-specification:Ostrich Sans Medium"
         id="path3185"
         inkscape:connector-curvature="0" />
      <path
         d="m 251.57082,104.12528 0,1.472 -7.452,0 0,29.532 -1.426,0 0,-29.532 -7.406,0 0,-1.472 16.284,0 0,0"
         style="line-height:100%;fill:#000000;font-family:Ostrich Sans;-inkscape-font-specification:Ostrich Sans Medium"
         id="path3187"
         inkscape:connector-curvature="0" />
      <path
         d="m 256.04864,135.17528 -1.426,0 0,-31.004 1.426,0 0,31.004 0,0 0,0"
         style="line-height:100%;fill:#000000;font-family:Ostrich Sans;-inkscape-font-specification:Ostrich Sans Medium"
         id="path3189"
         inkscape:connector-curvature="0" />
      <path
         d="m 273.72989,104.12528 1.518,0 -7.774,31.004 -1.104,0 -7.774,-31.004 1.472,0 6.854,27.324 6.808,-27.324 0,0"
         style="line-height:100%;fill:#000000;font-family:Ostrich Sans;-inkscape-font-specification:Ostrich Sans Medium"
         id="path3191"
         inkscape:connector-curvature="0" />
      <path
         d="m 278.94585,135.17528 -1.472,0 2.438,-10.764 0,-0.138 0,0 4.692,-20.102 1.15,0 7.084,31.004 -1.472,0 -2.116,-9.476 -8.188,0 -2.116,9.476 m 6.21,-27.094 -3.726,16.192 7.498,0 -3.772,-16.192"
         style="line-height:100%;fill:#000000;font-family:Ostrich Sans;-inkscape-font-specification:Ostrich Sans Medium"
         id="path3193"
         inkscape:connector-curvature="0" />
      <path
         d="m 307.12445,135.17528 -11.868,0 0,-31.004 1.472,0 0,29.578 10.396,0 0,1.426 0,0 0,0"
         style="line-height:100%;fill:#000000;font-family:Ostrich Sans;-inkscape-font-specification:Ostrich Sans Medium"
         id="path3195"
         inkscape:connector-curvature="0" />
      <path
         d="m 324.18398,135.17528 -5.29,0 0,-31.004 5.29,0 c 2.45333,3e-5 4.27799,0.73603 5.474,2.208 1.13465,1.34936 1.70199,3.40402 1.702,6.164 l 0,14.26 c -1e-5,2.76 -0.56735,4.81467 -1.702,6.164 -1.19601,1.472 -3.02067,2.208 -5.474,2.208 m -3.864,-1.426 3.864,0 c 1.99333,0 3.43466,-0.552 4.324,-1.656 0.91999,-1.13466 1.37999,-2.898 1.38,-5.29 l 0,-14.26 c -1e-5,-2.39198 -0.46001,-4.13998 -1.38,-5.244 -0.88934,-1.13464 -2.33067,-1.70197 -4.324,-1.702 l -3.864,0 0,28.152"
         style="line-height:100%;fill:#000000;font-family:Ostrich Sans;-inkscape-font-specification:Ostrich Sans Medium"
         id="path3197"
         inkscape:connector-curvature="0" />
      <path
         d="m 336.22017,105.59728 0,13.34 9.706,0 0,1.426 -9.706,0 0,13.386 9.706,0 0,1.426 -11.132,0 0,-31.004 11.132,0 0,1.426 -9.706,0"
         style="line-height:100%;fill:#000000;font-family:Ostrich Sans;-inkscape-font-specification:Ostrich Sans Medium"
         id="path3199"
         inkscape:connector-curvature="0" />
      <path
         d="m 354.10195,135.17528 -5.29,0 0,-31.004 5.29,0 c 2.45332,3e-5 4.27799,0.73603 5.474,2.208 1.13465,1.34936 1.70199,3.40402 1.702,6.164 l 0,14.26 c -10e-6,2.76 -0.56735,4.81467 -1.702,6.164 -1.19601,1.472 -3.02068,2.208 -5.474,2.208 m -3.864,-1.426 3.864,0 c 1.99332,0 3.43466,-0.552 4.324,-1.656 0.91999,-1.13466 1.37999,-2.898 1.38,-5.29 l 0,-14.26 c -10e-6,-2.39198 -0.46001,-4.13998 -1.38,-5.244 -0.88934,-1.13464 -2.33068,-1.70197 -4.324,-1.702 l -3.864,0 0,28.152"
         style="line-height:100%;fill:#000000;font-family:Ostrich Sans;-inkscape-font-specification:Ostrich Sans Medium"
         id="path3201"
         inkscape:connector-curvature="0" />
      <path
         d="m 366.73614,135.17528 -1.426,0 0,-31.004 1.426,0 0,31.004 0,0 0,0"
         style="line-height:100%;fill:#000000;font-family:Ostrich Sans;-inkscape-font-specification:Ostrich Sans Medium"
         id="path3203"
         inkscape:connector-curvature="0" />
      <path
         d="m 376.27539,135.17528 c -0.76668,0 -1.54868,-0.10734 -2.346,-0.322 -0.76667,-0.21467 -1.47201,-0.62867 -2.116,-1.242 -0.64401,-0.61333 -1.16534,-1.44133 -1.564,-2.484 -0.39867,-1.07333 -0.598,-2.46866 -0.598,-4.186 l 0,-14.582 c 0,-1.68664 0.19933,-3.06664 0.598,-4.14 0.39866,-1.07331 0.91999,-1.90131 1.564,-2.484 0.64399,-0.61331 1.34933,-1.02731 2.116,-1.242 0.79732,-0.21464 1.57932,-0.32197 2.346,-0.322 0.73599,3e-5 1.48732,0.10736 2.254,0.322 0.79732,0.21469 1.51799,0.62869 2.162,1.242 0.64398,0.58269 1.16532,1.41069 1.564,2.484 0.39865,1.07336 0.59798,2.45336 0.598,4.14 l 0,0.736 -1.472,0 0,-0.736 c -2e-5,-2.36131 -0.42935,-4.07864 -1.288,-5.152 -0.88935,-1.07331 -2.16201,-1.60997 -3.818,-1.61 -1.68668,3e-5 -2.97467,0.53669 -3.864,1.61 -0.85867,1.07336 -1.28801,2.79069 -1.288,5.152 l 0,14.582 c -10e-6,2.36134 0.44466,4.094 1.334,5.198 0.82799,1.07333 2.10066,1.61 3.818,1.61 1.65599,0 2.92865,-0.53667 3.818,-1.61 0.85865,-1.13466 1.28798,-2.86733 1.288,-5.198 l 0,-0.736 1.472,0 0,0.736 c -2e-5,1.71734 -0.19935,3.11267 -0.598,4.186 -0.39868,1.04267 -0.92002,1.87067 -1.564,2.484 -0.64401,0.61333 -1.36468,1.02733 -2.162,1.242 -0.76668,0.21466 -1.51801,0.322 -2.254,0.322"
         style="line-height:100%;fill:#000000;font-family:Ostrich Sans;-inkscape-font-specification:Ostrich Sans Medium"
         id="path3205"
         inkscape:connector-curvature="0" />
      <path
         d="m 387.02789,135.17528 -1.472,0 2.438,-10.764 0,-0.138 0,0 4.692,-20.102 1.15,0 7.084,31.004 -1.472,0 -2.116,-9.476 -8.188,0 -2.116,9.476 m 6.21,-27.094 -3.726,16.192 7.498,0 -3.772,-16.192"
         style="line-height:100%;fill:#000000;font-family:Ostrich Sans;-inkscape-font-specification:Ostrich Sans Medium"
         id="path3207"
         inkscape:connector-curvature="0" />
      <path
         d="m 419.66848,104.12528 0,1.472 -7.452,0 0,29.532 -1.426,0 0,-29.532 -7.406,0 0,-1.472 16.284,0 0,0"
         style="line-height:100%;fill:#000000;font-family:Ostrich Sans;-inkscape-font-specification:Ostrich Sans Medium"
         id="path3209"
         inkscape:connector-curvature="0" />
      <path
         d="m 423.54829,105.59728 0,13.34 9.706,0 0,1.426 -9.706,0 0,13.386 9.706,0 0,1.426 -11.132,0 0,-31.004 11.132,0 0,1.426 -9.706,0"
         style="line-height:100%;fill:#000000;font-family:Ostrich Sans;-inkscape-font-specification:Ostrich Sans Medium"
         id="path3211"
         inkscape:connector-curvature="0" />
      <path
         d="m 441.43007,135.17528 -5.29,0 0,-31.004 5.29,0 c 2.45333,3e-5 4.27799,0.73603 5.474,2.208 1.13466,1.34936 1.70199,3.40402 1.702,6.164 l 0,14.26 c -10e-6,2.76 -0.56734,4.81467 -1.702,6.164 -1.19601,1.472 -3.02067,2.208 -5.474,2.208 m -3.864,-1.426 3.864,0 c 1.99333,0 3.43466,-0.552 4.324,-1.656 0.91999,-1.13466 1.37999,-2.898 1.38,-5.29 l 0,-14.26 c -1e-5,-2.39198 -0.46001,-4.13998 -1.38,-5.244 -0.88934,-1.13464 -2.33067,-1.70197 -4.324,-1.702 l -3.864,0 0,28.152"
         style="line-height:100%;fill:#000000;font-family:Ostrich Sans;-inkscape-font-specification:Ostrich Sans Medium"
         id="path3213"
         inkscape:connector-curvature="0" />
      <path
         d="m 477.79739,104.12528 0,1.472 -7.452,0 0,29.532 -1.426,0 0,-29.532 -7.406,0 0,-1.472 16.284,0 0,0"
         style="line-height:100%;fill:#000000;font-family:Ostrich Sans;-inkscape-font-specification:Ostrich Sans Medium"
         id="path3215"
         inkscape:connector-curvature="0" />
      <path
         d="m 486.8292,135.17528 c -0.73601,0 -1.50267,-0.10734 -2.3,-0.322 -0.76667,-0.21467 -1.472,-0.62867 -2.116,-1.242 -0.644,-0.61333 -1.16534,-1.44133 -1.564,-2.484 -0.39867,-1.07333 -0.598,-2.46866 -0.598,-4.186 l 0,-14.582 c 0,-2.63731 0.53666,-4.66131 1.61,-6.072 1.13466,-1.41064 2.79066,-2.11597 4.968,-2.116 2.20799,3e-5 3.86399,0.70536 4.968,2.116 1.10399,1.38003 1.65599,3.40402 1.656,6.072 l 0,14.582 c -10e-6,1.71734 -0.19935,3.11267 -0.598,4.186 -0.39868,1.04267 -0.92001,1.87067 -1.564,2.484 -0.64401,0.61333 -1.36468,1.02733 -2.162,1.242 -0.76668,0.21466 -1.53334,0.322 -2.3,0.322 m 0,-29.578 c -1.74801,3e-5 -3.02067,0.53669 -3.818,1.61 -0.88934,1.13469 -1.334,2.85202 -1.334,5.152 l 0,14.582 c 0,2.33067 0.44466,4.06334 1.334,5.198 0.82799,1.07333 2.10066,1.61 3.818,1.61 1.68666,0 2.97466,-0.53667 3.864,-1.61 0.85865,-1.07333 1.28799,-2.806 1.288,-5.198 l 0,-14.582 c -10e-6,-2.36131 -0.42935,-4.07864 -1.288,-5.152 -0.85868,-1.07331 -2.14668,-1.60997 -3.864,-1.61"
         style="line-height:100%;fill:#000000;font-family:Ostrich Sans;-inkscape-font-specification:Ostrich Sans Medium"
         id="path3217"
         inkscape:connector-curvature="0" />
      <path
         d="m 507.77789,135.17528 -1.472,0 2.438,-10.764 0,-0.138 0,0 4.692,-20.102 1.15,0 7.084,31.004 -1.472,0 -2.116,-9.476 -8.188,0 -2.116,9.476 m 6.21,-27.094 -3.726,16.192 7.498,0 -3.772,-16.192"
         style="line-height:100%;fill:#000000;font-family:Ostrich Sans;-inkscape-font-specification:Ostrich Sans Medium"
         id="path3219"
         inkscape:connector-curvature="0" />
      <path
         d="m 535.17448,121.05328 c 1.37999,1.31868 2.06999,3.14334 2.07,5.474 l 0,8.602 -1.472,0 0,-8.602 c -10e-6,-1.87066 -0.50601,-3.31199 -1.518,-4.324 -1.01201,-1.04265 -2.43801,-1.56399 -4.278,-1.564 l -0.69,0 -3.45,0 0,14.49 -1.426,0 0,-31.004 5.566,0 c 2.48399,3e-5 4.29332,0.67469 5.428,2.024 1.16532,1.31869 1.74799,3.38869 1.748,6.21 -10e-6,2.76002 -0.56735,4.81468 -1.702,6.164 -0.49068,0.58268 -1.10401,1.05801 -1.84,1.426 0.58266,0.27601 1.10399,0.64401 1.564,1.104 m -5.198,-1.886 c 2.05466,10e-6 3.51132,-0.52132 4.37,-1.564 0.91999,-1.10398 1.37999,-2.85198 1.38,-5.244 -1e-5,-2.42264 -0.44468,-4.15531 -1.334,-5.198 -0.88934,-1.04264 -2.36134,-1.56397 -4.416,-1.564 l -4.14,0 0,13.57 3.45,0 0.69,0"
         style="line-height:100%;fill:#000000;font-family:Ostrich Sans;-inkscape-font-specification:Ostrich Sans Medium"
         id="path3221"
         inkscape:connector-curvature="0" />
      <path
         d="m 556.50051,104.12528 0,1.472 -7.452,0 0,29.532 -1.426,0 0,-29.532 -7.406,0 0,-1.472 16.284,0 0,0"
         style="line-height:100%;fill:#000000;font-family:Ostrich Sans;-inkscape-font-specification:Ostrich Sans Medium"
         id="path3223"
         inkscape:connector-curvature="0" />
      <path
         d="m 560.51832,137.01528 -1.426,0 0,-3.818 1.426,0 0,3.818 0,0 0,0"
         style="line-height:100%;fill:#000000;font-family:Ostrich Sans;-inkscape-font-specification:Ostrich Sans Medium"
         id="path3225"
         inkscape:connector-curvature="0" />
      <path
         d="m 583.46657,104.17128 1.472,0 0,31.004 -1.472,0 0,-14.766 -9.384,0 0,14.766 -1.472,0 0,-31.004 1.472,0 0,14.812 9.384,0 0,-14.812 0,0"
         style="line-height:100%;fill:#000000;font-family:Ostrich Sans;-inkscape-font-specification:Ostrich Sans Medium"
         id="path3227"
         inkscape:connector-curvature="0" />
      <path
         d="m 589.89507,135.17528 -1.472,0 2.438,-10.764 0,-0.138 0,0 4.692,-20.102 1.15,0 7.084,31.004 -1.472,0 -2.116,-9.476 -8.188,0 -2.116,9.476 m 6.21,-27.094 -3.726,16.192 7.498,0 -3.772,-16.192"
         style="line-height:100%;fill:#000000;font-family:Ostrich Sans;-inkscape-font-specification:Ostrich Sans Medium"
         id="path3229"
         inkscape:connector-curvature="0" />
      <path
         d="m 613.01367,135.17528 c -0.76668,0 -1.54867,-0.10734 -2.346,-0.322 -0.76667,-0.21467 -1.47201,-0.62867 -2.116,-1.242 -0.644,-0.61333 -1.16534,-1.44133 -1.564,-2.484 -0.39867,-1.07333 -0.598,-2.46866 -0.598,-4.186 l 0,-14.582 c 0,-1.68664 0.19933,-3.06664 0.598,-4.14 0.39866,-1.07331 0.92,-1.90131 1.564,-2.484 0.64399,-0.61331 1.34933,-1.02731 2.116,-1.242 0.79733,-0.21464 1.57932,-0.32197 2.346,-0.322 0.73599,3e-5 1.48732,0.10736 2.254,0.322 0.79732,0.21469 1.51799,0.62869 2.162,1.242 0.64399,0.58269 1.16532,1.41069 1.564,2.484 0.39865,1.07336 0.59798,2.45336 0.598,4.14 l 0,0.736 -1.472,0 0,-0.736 c -1e-5,-2.36131 -0.42935,-4.07864 -1.288,-5.152 -0.88935,-1.07331 -2.16201,-1.60997 -3.818,-1.61 -1.68667,3e-5 -2.97467,0.53669 -3.864,1.61 -0.85867,1.07336 -1.288,2.79069 -1.288,5.152 l 0,14.582 c 0,2.36134 0.44466,4.094 1.334,5.198 0.82799,1.07333 2.10066,1.61 3.818,1.61 1.65599,0 2.92865,-0.53667 3.818,-1.61 0.85865,-1.13466 1.28799,-2.86733 1.288,-5.198 l 0,-0.736 1.472,0 0,0.736 c -2e-5,1.71734 -0.19935,3.11267 -0.598,4.186 -0.39868,1.04267 -0.92001,1.87067 -1.564,2.484 -0.64401,0.61333 -1.36468,1.02733 -2.162,1.242 -0.76668,0.21466 -1.51801,0.322 -2.254,0.322"
         style="line-height:100%;fill:#000000;font-family:Ostrich Sans;-inkscape-font-specification:Ostrich Sans Medium"
         id="path3231"
         inkscape:connector-curvature="0" />
      <path
         d="m 637.19817,104.17128 -9.522,14.214 9.522,16.79 -1.656,0 -8.74,-15.41 -3.128,4.646 0,10.764 -1.472,0 0,-31.004 1.472,0 0,17.618 11.776,-17.618 1.748,0 0,0"
         style="line-height:100%;fill:#000000;font-family:Ostrich Sans;-inkscape-font-specification:Ostrich Sans Medium"
         id="path3233"
         inkscape:connector-curvature="0" />
      <path
         d="m 654.87942,104.12528 0,1.472 -7.452,0 0,29.532 -1.426,0 0,-29.532 -7.406,0 0,-1.472 16.284,0 0,0"
         style="line-height:100%;fill:#000000;font-family:Ostrich Sans;-inkscape-font-specification:Ostrich Sans Medium"
         id="path3235"
         inkscape:connector-curvature="0" />
      <path
         d="m 659.35723,135.17528 -1.426,0 0,-31.004 1.426,0 0,31.004 0,0 0,0"
         style="line-height:100%;fill:#000000;font-family:Ostrich Sans;-inkscape-font-specification:Ostrich Sans Medium"
         id="path3237"
         inkscape:connector-curvature="0" />
      <path
         d="m 677.03848,104.12528 1.518,0 -7.774,31.004 -1.104,0 -7.774,-31.004 1.472,0 6.854,27.324 6.808,-27.324 0,0"
         style="line-height:100%;fill:#000000;font-family:Ostrich Sans;-inkscape-font-specification:Ostrich Sans Medium"
         id="path3239"
         inkscape:connector-curvature="0" />
      <path
         d="m 682.80645,135.17528 -1.426,0 0,-31.004 1.426,0 0,31.004 0,0 0,0"
         style="line-height:100%;fill:#000000;font-family:Ostrich Sans;-inkscape-font-specification:Ostrich Sans Medium"
         id="path3241"
         inkscape:connector-curvature="0" />
      <path
         d="m 692.4377,135.12928 c -2.20801,0 -3.864,-0.70533 -4.968,-2.116 -1.104,-1.31867 -1.656,-3.34266 -1.656,-6.072 l 0,-0.69 1.426,0 0,0.69 c 0,1.53334 0.16866,2.74467 0.506,3.634 0.33733,0.88933 0.75133,1.564 1.242,2.024 0.52133,0.46 1.08866,0.76667 1.702,0.92 0.61333,0.12267 1.19599,0.184 1.748,0.184 1.65599,0 2.92866,-0.56733 3.818,-1.702 0.91999,-1.16533 1.37999,-2.77533 1.38,-4.83 -1e-5,-1.10399 -0.19935,-2.02399 -0.598,-2.76 -0.36801,-0.76666 -0.82801,-1.39532 -1.38,-1.886 -0.52134,-0.49066 -1.07334,-0.87399 -1.656,-1.15 -0.58268,-0.27599 -1.05801,-0.49065 -1.426,-0.644 l -0.782,-0.322 c -0.46001,-0.18399 -1.02734,-0.44465 -1.702,-0.782 -0.67467,-0.36799 -1.334,-0.85865 -1.978,-1.472 -0.61334,-0.64398 -1.15,-1.42598 -1.61,-2.346 -0.46,-0.95065 -0.69,-2.10065 -0.69,-3.45 0,-2.33064 0.53666,-4.24731 1.61,-5.75 1.22666,-1.65597 2.89799,-2.48397 5.014,-2.484 2.17732,3e-5 3.84865,0.72069 5.014,2.162 1.10399,1.38003 1.65598,3.40402 1.656,6.072 l 0,0.736 -1.472,0 0,-0.736 c -1e-5,-2.33064 -0.44468,-4.06331 -1.334,-5.198 -0.82801,-1.04264 -2.11601,-1.56397 -3.864,-1.564 -1.65601,3e-5 -2.92867,0.62869 -3.818,1.886 -0.92,1.25736 -1.38,2.88269 -1.38,4.876 0,1.10402 0.184,2.03935 0.552,2.806 0.368,0.76668 0.81266,1.41068 1.334,1.932 0.55199,0.52135 1.11933,0.93535 1.702,1.242 0.58266,0.30668 1.10399,0.55201 1.564,0.736 l 0.736,0.322 c 0.39866,0.15335 0.93532,0.39868 1.61,0.736 0.67466,0.30668 1.33399,0.76668 1.978,1.38 0.64399,0.58268 1.19599,1.33401 1.656,2.254 0.49065,0.92001 0.73598,2.05467 0.736,3.404 -2e-5,2.3 -0.55201,4.17067 -1.656,5.612 -1.19601,1.564 -2.86734,2.346 -5.014,2.346"
         style="line-height:100%;fill:#000000;font-family:Ostrich Sans;-inkscape-font-specification:Ostrich Sans Medium"
         id="path3243"
         inkscape:connector-curvature="0" />
      <path
         d="m 703.09389,110.05928 0,25.116 -1.426,0 0,-31.004 1.242,0 7.958,27.646 7.912,-27.646 1.288,0 0,31.004 -1.472,0 0,-25.116 -7.176,25.116 -1.104,0 -7.222,-25.116 0,0"
         style="line-height:100%;fill:#000000;font-family:Ostrich Sans;-inkscape-font-specification:Ostrich Sans Medium"
         id="path3245"
         inkscape:connector-curvature="0" />
      <path
         d="m 739.82704,135.17528 c -2.14667,0 -3.84867,-0.75133 -5.106,-2.254 -1.22666,-1.41067 -1.84,-3.20466 -1.84,-5.382 0,-1.01199 0.12267,-1.90133 0.368,-2.668 0.24534,-0.76666 0.56733,-1.44132 0.966,-2.024 0.42933,-0.61332 0.90467,-1.16532 1.426,-1.656 0.552,-0.49065 1.104,-0.98132 1.656,-1.472 0.24533,-0.24532 0.506,-0.47532 0.782,-0.69 0.276,-0.24532 0.552,-0.49065 0.828,-0.736 -0.21467,-0.30665 -0.49067,-0.75132 -0.828,-1.334 -0.33734,-0.58265 -0.67467,-1.22665 -1.012,-1.932 -0.30667,-0.70531 -0.58267,-1.44131 -0.828,-2.208 -0.21467,-0.79731 -0.322,-1.57931 -0.322,-2.346 0,-1.04264 0.0613,-1.91664 0.184,-2.622 0.15333,-0.73597 0.35267,-1.36464 0.598,-1.886 0.644,-1.19597 1.68666,-1.79397 3.128,-1.794 1.56399,3e-5 2.65266,0.70536 3.266,2.116 0.27599,0.61336 0.44466,1.30336 0.506,2.07 0.092,0.76669 0.13799,1.47202 0.138,2.116 -10e-6,1.10402 -0.12267,2.10069 -0.368,2.99 -0.21467,0.88935 -0.47534,1.67135 -0.782,2.346 -0.30667,0.67468 -0.64401,1.24202 -1.012,1.702 -0.33734,0.42935 -0.61334,0.76668 -0.828,1.012 l 6.026,10.35 c 0.42932,-1.16533 0.68999,-2.36133 0.782,-3.588 0.092,-1.25732 0.13799,-2.37666 0.138,-3.358 l 0,-0.46 1.472,0 0,0.46 c -10e-6,1.16534 -0.0767,2.51468 -0.23,4.048 -0.15335,1.53334 -0.55201,2.99 -1.196,4.37 -1e-5,0.0307 -0.0154,0.046 -0.046,0.046 -10e-6,0 -10e-6,0.0153 0,0.046 l 2.76,4.738 -1.656,0 -1.932,-3.312 c -1.56401,2.208 -3.91001,3.312 -7.038,3.312 m -2.438,-24.702 c 0,0.61336 0.092,1.25735 0.276,1.932 0.184,0.64402 0.39866,1.27269 0.644,1.886 0.276,0.61335 0.552,1.18068 0.828,1.702 0.30666,0.52135 0.56733,0.95068 0.782,1.288 0.15333,-0.15332 0.30666,-0.33732 0.46,-0.552 0.15333,-0.21465 0.30666,-0.44465 0.46,-0.69 0.95066,-1.59465 1.42599,-3.44998 1.426,-5.566 -10e-6,-1.01198 -0.0613,-1.82464 -0.184,-2.438 -0.12267,-0.64397 -0.29134,-1.14997 -0.506,-1.518 -0.18401,-0.36797 -0.42934,-0.61331 -0.736,-0.736 -0.30667,-0.12264 -0.644,-0.18397 -1.012,-0.184 -0.33734,3e-5 -0.65934,0.0614 -0.966,0.184 -0.276,0.092 -0.52134,0.30669 -0.736,0.644 -0.21467,0.33736 -0.39867,0.82803 -0.552,1.472 -0.12267,0.64402 -0.184,1.50269 -0.184,2.576 m 0.828,10.35 c -0.552,0.46001 -1.07334,0.92001 -1.564,1.38 -0.46,0.42934 -0.874,0.90468 -1.242,1.426 -0.33733,0.49068 -0.61333,1.05801 -0.828,1.702 -0.184,0.61334 -0.276,1.34934 -0.276,2.208 0,0.76667 0.10733,1.53334 0.322,2.3 0.21467,0.736 0.552,1.39533 1.012,1.978 0.46,0.58267 1.02733,1.058 1.702,1.426 0.70533,0.33733 1.53333,0.506 2.484,0.506 2.85199,0 4.92199,-1.08867 6.21,-3.266 l -6.394,-10.902 c -0.24534,0.21468 -0.49067,0.42935 -0.736,0.644 -0.21467,0.18401 -0.44467,0.38335 -0.69,0.598"
         style="line-height:100%;fill:#000000;font-family:Ostrich Sans;-inkscape-font-specification:Ostrich Sans Medium"
         id="path3247"
         inkscape:connector-curvature="0" />
      <path
         d="m 769.29795,135.17528 c -0.73601,0 -1.50267,-0.10734 -2.3,-0.322 -0.76667,-0.21467 -1.472,-0.62867 -2.116,-1.242 -0.644,-0.61333 -1.16534,-1.44133 -1.564,-2.484 -0.39867,-1.07333 -0.598,-2.46866 -0.598,-4.186 l 0,-14.582 c 0,-2.63731 0.53666,-4.66131 1.61,-6.072 1.13466,-1.41064 2.79066,-2.11597 4.968,-2.116 2.20799,3e-5 3.86399,0.70536 4.968,2.116 1.10399,1.38003 1.65599,3.40402 1.656,6.072 l 0,14.582 c -1e-5,1.71734 -0.19935,3.11267 -0.598,4.186 -0.39868,1.04267 -0.92001,1.87067 -1.564,2.484 -0.64401,0.61333 -1.36468,1.02733 -2.162,1.242 -0.76668,0.21466 -1.53334,0.322 -2.3,0.322 m 0,-29.578 c -1.74801,3e-5 -3.02067,0.53669 -3.818,1.61 -0.88934,1.13469 -1.334,2.85202 -1.334,5.152 l 0,14.582 c 0,2.33067 0.44466,4.06334 1.334,5.198 0.82799,1.07333 2.10066,1.61 3.818,1.61 1.68666,0 2.97466,-0.53667 3.864,-1.61 0.85865,-1.07333 1.28799,-2.806 1.288,-5.198 l 0,-14.582 c -10e-6,-2.36131 -0.42935,-4.07864 -1.288,-5.152 -0.85868,-1.07331 -2.14668,-1.60997 -3.864,-1.61"
         style="line-height:100%;fill:#000000;font-family:Ostrich Sans;-inkscape-font-specification:Ostrich Sans Medium"
         id="path3249"
         inkscape:connector-curvature="0" />
      <path
         d="m 780.54351,135.17528 -1.426,0 0,-31.004 5.566,0 c 2.48399,3e-5 4.30866,0.67469 5.474,2.024 1.16532,1.34936 1.74799,3.37336 1.748,6.072 -1e-5,2.69868 -0.58268,4.72268 -1.748,6.072 -1.16534,1.34935 -2.99001,2.02401 -5.474,2.024 l -4.14,0 0,14.812 m 0,-16.238 4.14,0 c 2.02399,1e-5 3.49599,-0.52132 4.416,-1.564 0.88932,-1.07332 1.33399,-2.77532 1.334,-5.106 -10e-6,-2.39198 -0.44468,-4.09398 -1.334,-5.106 -0.88934,-1.04264 -2.36134,-1.56397 -4.416,-1.564 l -4.14,0 0,13.34"
         style="line-height:100%;fill:#000000;font-family:Ostrich Sans;-inkscape-font-specification:Ostrich Sans Medium"
         id="path3251"
         inkscape:connector-curvature="0" />
      <path
         d="m 796.13032,105.59728 0,13.34 9.706,0 0,1.426 -9.706,0 0,13.386 9.706,0 0,1.426 -11.132,0 0,-31.004 11.132,0 0,1.426 -9.706,0"
         style="line-height:100%;fill:#000000;font-family:Ostrich Sans;-inkscape-font-specification:Ostrich Sans Medium"
         id="path3253"
         inkscape:connector-curvature="0" />
      <path
         d="m 810.0561,108.63328 0,26.542 -1.472,0 0,-31.004 1.242,0 10.672,26.542 0,-26.542 1.472,0 0,31.004 -1.196,0 -10.718,-26.542 0,0"
         style="line-height:100%;fill:#000000;font-family:Ostrich Sans;-inkscape-font-specification:Ostrich Sans Medium"
         id="path3255"
         inkscape:connector-curvature="0" />
      <path
         d="m 841.48632,135.17528 c -0.76667,0 -1.54867,-0.10734 -2.346,-0.322 -0.76667,-0.21467 -1.472,-0.62867 -2.116,-1.242 -0.644,-0.61333 -1.16533,-1.44133 -1.564,-2.484 -0.39866,-1.07333 -0.598,-2.46866 -0.598,-4.186 l 0,-14.582 c 0,-1.68664 0.19934,-3.06664 0.598,-4.14 0.39867,-1.07331 0.92,-1.90131 1.564,-2.484 0.644,-0.61331 1.34933,-1.02731 2.116,-1.242 0.79733,-0.21464 1.57933,-0.32197 2.346,-0.322 0.736,3e-5 1.48733,0.10736 2.254,0.322 0.79733,0.21469 1.51799,0.62869 2.162,1.242 0.64399,0.58269 1.16532,1.41069 1.564,2.484 0.39866,1.07336 0.59799,2.45336 0.598,4.14 l 0,0.736 -1.472,0 0,-0.736 c -10e-6,-2.36131 -0.42934,-4.07864 -1.288,-5.152 -0.88934,-1.07331 -2.162,-1.60997 -3.818,-1.61 -1.68667,3e-5 -2.97467,0.53669 -3.864,1.61 -0.85867,1.07336 -1.288,2.79069 -1.288,5.152 l 0,14.582 c 0,2.36134 0.44467,4.094 1.334,5.198 0.828,1.07333 2.10067,1.61 3.818,1.61 1.656,0 2.92866,-0.53667 3.818,-1.61 0.85866,-1.13466 1.28799,-2.86733 1.288,-5.198 l 0,-0.736 1.472,0 0,0.736 c -10e-6,1.71734 -0.19934,3.11267 -0.598,4.186 -0.39868,1.04267 -0.92001,1.87067 -1.564,2.484 -0.64401,0.61333 -1.36467,1.02733 -2.162,1.242 -0.76667,0.21466 -1.518,0.322 -2.254,0.322"
         style="line-height:100%;fill:#000000;font-family:Ostrich Sans;-inkscape-font-specification:Ostrich Sans Medium"
         id="path3257"
         inkscape:connector-curvature="0" />
      <path
         d="m 856.79282,135.12928 c -0.70534,0 -1.426,-0.092 -2.162,-0.276 -0.70533,-0.21467 -1.36467,-0.598 -1.978,-1.15 -0.58266,-0.552 -1.07333,-1.31867 -1.472,-2.3 -0.368,-1.012 -0.552,-2.3 -0.552,-3.864 l 0,-23.414 1.426,0 0,23.414 c 0,1.38 0.15334,2.484 0.46,3.312 0.30667,0.79733 0.69,1.41067 1.15,1.84 0.46,0.42933 0.966,0.70533 1.518,0.828 0.552,0.12267 1.08866,0.184 1.61,0.184 0.49066,0 1.012,-0.0613 1.564,-0.184 0.552,-0.12267 1.05799,-0.39867 1.518,-0.828 0.45999,-0.42933 0.84333,-1.04267 1.15,-1.84 0.30666,-0.828 0.45999,-1.932 0.46,-3.312 l 0,-23.414 1.426,0 0,23.414 c -10e-6,1.564 -0.19934,2.852 -0.598,3.864 -0.36801,0.98133 -0.84334,1.748 -1.426,2.3 -0.58267,0.552 -1.24201,0.93533 -1.978,1.15 -0.736,0.184 -1.44134,0.276 -2.116,0.276"
         style="line-height:100%;fill:#000000;font-family:Ostrich Sans;-inkscape-font-specification:Ostrich Sans Medium"
         id="path3259"
         inkscape:connector-curvature="0" />
      <path
         d="m 878.44085,135.17528 -11.868,0 0,-31.004 1.472,0 0,29.578 10.396,0 0,1.426 0,0 0,0"
         style="line-height:100%;fill:#000000;font-family:Ostrich Sans;-inkscape-font-specification:Ostrich Sans Medium"
         id="path3261"
         inkscape:connector-curvature="0" />
      <path
         d="m 896.46926,104.12528 0,1.472 -7.452,0 0,29.532 -1.426,0 0,-29.532 -7.406,0 0,-1.472 16.284,0 0,0"
         style="line-height:100%;fill:#000000;font-family:Ostrich Sans;-inkscape-font-specification:Ostrich Sans Medium"
         id="path3263"
         inkscape:connector-curvature="0" />
      <path
         d="m 904.94907,135.12928 c -0.70534,0 -1.426,-0.092 -2.162,-0.276 -0.70533,-0.21467 -1.36467,-0.598 -1.978,-1.15 -0.58266,-0.552 -1.07333,-1.31867 -1.472,-2.3 -0.368,-1.012 -0.552,-2.3 -0.552,-3.864 l 0,-23.414 1.426,0 0,23.414 c 0,1.38 0.15334,2.484 0.46,3.312 0.30667,0.79733 0.69,1.41067 1.15,1.84 0.46,0.42933 0.966,0.70533 1.518,0.828 0.552,0.12267 1.08866,0.184 1.61,0.184 0.49066,0 1.012,-0.0613 1.564,-0.184 0.552,-0.12267 1.05799,-0.39867 1.518,-0.828 0.45999,-0.42933 0.84333,-1.04267 1.15,-1.84 0.30666,-0.828 0.45999,-1.932 0.46,-3.312 l 0,-23.414 1.426,0 0,23.414 c -10e-6,1.564 -0.19934,2.852 -0.598,3.864 -0.36801,0.98133 -0.84334,1.748 -1.426,2.3 -0.58267,0.552 -1.24201,0.93533 -1.978,1.15 -0.736,0.184 -1.44134,0.276 -2.116,0.276"
         style="line-height:100%;fill:#000000;font-family:Ostrich Sans;-inkscape-font-specification:Ostrich Sans Medium"
         id="path3265"
         inkscape:connector-curvature="0" />
      <path
         d="m 925.8151,121.05328 c 1.37999,1.31868 2.06999,3.14334 2.07,5.474 l 0,8.602 -1.472,0 0,-8.602 c -10e-6,-1.87066 -0.50601,-3.31199 -1.518,-4.324 -1.012,-1.04265 -2.438,-1.56399 -4.278,-1.564 l -0.69,0 -3.45,0 0,14.49 -1.426,0 0,-31.004 5.566,0 c 2.484,3e-5 4.29333,0.67469 5.428,2.024 1.16533,1.31869 1.74799,3.38869 1.748,6.21 -10e-6,2.76002 -0.56734,4.81468 -1.702,6.164 -0.49067,0.58268 -1.10401,1.05801 -1.84,1.426 0.58266,0.27601 1.10399,0.64401 1.564,1.104 m -5.198,-1.886 c 2.05466,10e-6 3.51133,-0.52132 4.37,-1.564 0.91999,-1.10398 1.37999,-2.85198 1.38,-5.244 -1e-5,-2.42264 -0.44467,-4.15531 -1.334,-5.198 -0.88934,-1.04264 -2.36134,-1.56397 -4.416,-1.564 l -4.14,0 0,13.57 3.45,0 0.69,0"
         style="line-height:100%;fill:#000000;font-family:Ostrich Sans;-inkscape-font-specification:Ostrich Sans Medium"
         id="path3267"
         inkscape:connector-curvature="0" />
      <path
         d="m 932.51314,105.59728 0,13.34 9.706,0 0,1.426 -9.706,0 0,13.386 9.706,0 0,1.426 -11.132,0 0,-31.004 11.132,0 0,1.426 -9.706,0"
         style="line-height:100%;fill:#000000;font-family:Ostrich Sans;-inkscape-font-specification:Ostrich Sans Medium"
         id="path3269"
         inkscape:connector-curvature="0" />
    </g>
    <path
       style="fill:none;stroke:#000000;stroke-width:1.58212137px;stroke-linecap:butt;stroke-linejoin:miter;stroke-opacity:1;display:inline;enable-background:new"
       d="m 182.89991,94.436116 753.40743,0"
       id="path5902-2"
       inkscape:connector-curvature="0"
       sodipodi:nodetypes="cc" />
  </g>
</svg>
